<svg width="1440" height="355" viewBox="0 0 1440 355" fill="none" xmlns="http://www.w3.org/2000/svg">
<g clip-path="url(#clip0_156_147)">
<path d="M641.646 95.9112H624.532V38.2146H590.221V95.9112H579.987V90.0971C582.652 89.9025 584.754 87.7375 584.754 85.0892C584.754 82.3129 582.446 77.8019 579.598 77.8019C576.75 77.8019 574.442 82.3129 574.442 85.0892C574.442 87.7375 576.543 89.9025 579.209 90.0971V95.9112C579.209 95.8448 567.294 95.9112 567.294 95.9112V90.0971C569.959 89.9025 572.061 87.7375 572.061 85.0892C572.061 82.3129 569.752 77.8019 566.904 77.8019C564.057 77.8019 561.748 82.3129 561.748 85.0892C561.748 87.7375 563.85 89.9025 566.515 90.0971V95.9112H509.936V90.0971C512.601 89.9025 514.703 87.7375 514.703 85.0892C514.703 82.3129 512.394 77.8019 509.547 77.8019C506.699 77.8019 504.39 82.3129 504.39 85.0892C504.39 87.7375 506.492 89.9025 509.158 90.0971V95.9112C509.158 95.8582 494.892 95.9112 494.892 95.9112C493.989 93.7185 493.022 91.4613 493.461 88.7523C493.479 88.6427 493.495 88.5322 493.51 88.4215C494.207 88.1533 494.913 87.7298 495.642 87.7354C495.987 87.738 496.329 87.8384 496.672 87.7832C497.531 87.6446 498.017 86.6283 498.834 86.3072C499.252 86.1429 499.716 86.1785 500.144 86.0449C501.378 85.6592 501.814 84.1306 502.043 82.8494C502.218 81.8743 502.392 80.8991 502.567 79.924C502.695 79.2102 502.823 78.479 502.704 77.7731C502.586 77.0671 502.169 76.3794 501.503 76.1502C501.714 73.795 500.298 71.4433 498.157 70.5945C497.744 70.4307 497.302 70.3144 496.946 70.0493C496.661 69.8367 496.45 69.5413 496.206 69.2823C495.054 68.061 493.363 67.9342 491.801 68.4122C490.781 68.7242 490.883 68.6659 489.891 68.5436C488.978 68.4309 488.188 68.4615 487.37 69.0242C486.329 69.7402 485.642 70.86 484.834 71.8389C484.349 72.4279 483.8 72.9915 483.516 73.698C483.131 74.6526 483.284 75.7283 482.995 76.7134C482.776 77.4571 482.309 78.1384 482.238 78.9054C482.101 80.391 483.472 81.5736 483.568 83.0534C483.627 83.9667 483.215 85.0128 483.746 85.7367C483.958 86.0261 484.285 86.1994 484.587 86.391C485.384 86.8966 486.056 87.5804 486.857 88.0789C487.658 88.5775 488.669 88.8801 489.573 88.5286C489.99 88.3664 490.383 88.0688 490.823 88.0781C491.112 88.0842 491.366 88.2216 491.623 88.3568C491.733 88.5898 491.841 88.8368 491.925 89.1396C492.233 90.2474 492.023 91.477 491.921 92.6325C491.813 93.8548 491.51 95.1748 490.636 95.8467L479.377 95.9112V55.8558H456.444V32.731H415.164V55.2364H392.246V95.9112H381.465C380.562 93.7185 379.595 91.4613 380.034 88.7523C380.052 88.6427 380.068 88.5322 380.084 88.4215C380.781 88.1533 381.486 87.7298 382.215 87.7354C382.56 87.738 382.902 87.8384 383.245 87.7832C384.105 87.6446 384.59 86.6283 385.408 86.3072C385.826 86.1429 386.289 86.1785 386.717 86.0449C387.951 85.6592 388.387 84.1306 388.616 82.8494C388.791 81.8743 388.966 80.8991 389.14 79.924C389.268 79.2102 389.396 78.479 389.277 77.7731C389.159 77.0671 388.742 76.3794 388.076 76.1502C388.287 73.795 386.871 71.4433 384.73 70.5945C384.317 70.4307 383.875 70.3144 383.52 70.0493C383.235 69.8367 383.024 69.5413 382.779 69.2823C381.628 68.061 379.936 67.9342 378.374 68.4122C377.354 68.7242 377.456 68.6659 376.465 68.5436C375.551 68.4309 374.761 68.4615 373.943 69.0242C372.902 69.7402 372.215 70.86 371.408 71.8389C370.922 72.4279 370.373 72.9915 370.089 73.698C369.704 74.6526 369.858 75.7283 369.568 76.7134C369.35 77.4571 368.882 78.1384 368.811 78.9054C368.675 80.391 370.045 81.5736 370.141 83.0534C370.2 83.9667 369.788 85.0128 370.319 85.7367C370.531 86.0261 370.859 86.1994 371.161 86.391C371.957 86.8966 372.629 87.5804 373.43 88.0789C374.231 88.5775 375.242 88.8801 376.146 88.5286C376.563 88.3664 376.956 88.0688 377.397 88.0781C377.686 88.0842 377.939 88.2216 378.196 88.3568C378.306 88.5898 378.415 88.8368 378.499 89.1396C378.807 90.2474 378.596 91.477 378.494 92.6325C378.387 93.8548 378.083 95.1748 377.209 95.8467L354.742 95.9112V87.5833C358.56 87.3046 361.571 84.2035 361.571 80.4102C361.571 76.4336 358.264 69.9723 354.185 69.9723C350.106 69.9723 346.799 76.4336 346.799 80.4102C346.799 84.2035 349.81 87.3046 353.628 87.5833V95.9112H343.176V92.327V40.7352V34.0012H319.57L314.791 28.7141L313.021 26.6154L309.729 30.5178L300.708 40.4094H301.386L301.111 40.7352H301.143V95.9112H289.317V75.5983L271.386 61.0459L253.58 75.4974V95.9112H244.075V0.933105H202.922V95.9112H177.596V90.0971C180.261 89.9025 182.363 87.7375 182.363 85.0892C182.363 82.3129 180.055 77.8019 177.207 77.8019C174.359 77.8019 172.051 82.3129 172.051 85.0892C172.051 87.7375 174.152 89.9025 176.818 90.0971V95.9112H164.903V90.0971C167.568 89.9025 169.67 87.7375 169.67 85.0892C169.67 82.3129 167.361 77.8019 164.513 77.8019C161.666 77.8019 159.357 82.3129 159.357 85.0892C159.357 87.7375 161.459 89.9025 164.124 90.0971V95.9112H153.647V75.5983L135.716 61.0459L117.91 75.4974V95.9112H97.7766V41.9449H86.026V23.2836C86.026 23.2836 61.3498 4.66393 61.3498 6.1354V95.9112H50.1113V24.814H47.6058V26.7387H24.0991V24.814H21.5935V95.9112H12.2425V87.5833C16.0601 87.3046 19.0707 84.2035 19.0707 80.4102C19.0707 76.4336 15.7641 69.9723 11.6851 69.9723C7.60599 69.9723 4.29932 76.4336 4.29932 80.4102C4.29932 84.2035 7.30991 87.3046 11.1277 87.5833V95.9112H-1.09558V20.1314H-4.35785V22.1829H-34.9633V20.1314H-38.2256V95.9112H-46.1855V90.0971C-43.5202 89.9025 -41.4183 87.7375 -41.4183 85.0892C-41.4183 82.3129 -43.7269 77.8019 -46.5746 77.8019C-49.4225 77.8019 -51.731 82.3129 -51.731 85.0892C-51.731 87.7375 -49.6292 89.9025 -46.9637 90.0971V95.9112H-60.7588C-61.6616 93.7185 -62.629 91.4613 -62.19 88.7523C-62.1723 88.6427 -62.1563 88.5322 -62.1405 88.4215C-61.4434 88.1533 -60.7377 87.7298 -60.0088 87.7354C-59.6639 87.738 -59.3221 87.8384 -58.9793 87.7832C-58.1194 87.6446 -57.634 86.6283 -56.8165 86.3072C-56.3984 86.1429 -55.9347 86.1785 -55.5071 86.0449C-54.2726 85.6592 -53.8371 84.1306 -53.6077 82.8494C-53.4332 81.8743 -53.2586 80.8991 -53.084 79.924C-52.9562 79.2102 -52.8282 78.479 -52.9467 77.7731C-53.0652 77.0671 -53.4817 76.3794 -54.1482 76.1502C-53.9367 73.795 -55.3529 71.4433 -57.494 70.5945C-57.9071 70.4307 -58.3492 70.3144 -58.7045 70.0493C-58.9894 69.8367 -59.2003 69.5413 -59.4446 69.2823C-60.5966 68.061 -62.2877 67.9342 -63.8503 68.4122C-64.8703 68.7242 -64.7683 68.6659 -65.7594 68.5436C-66.6731 68.4309 -67.4628 68.4615 -68.2809 69.0242C-69.3218 69.7402 -70.0093 70.86 -70.8165 71.8389C-71.3023 72.4279 -71.8508 72.9915 -72.1353 73.698C-72.5199 74.6526 -72.3665 75.7283 -72.656 76.7134C-72.8745 77.4571 -73.3421 78.1384 -73.4127 78.9054C-73.5494 80.391 -72.1793 81.5736 -72.0833 83.0534C-72.0241 83.9667 -72.4356 85.0128 -71.9053 85.7367C-71.6933 86.0261 -71.3655 86.1994 -71.0636 86.391C-70.2669 86.8966 -69.5951 87.5804 -68.7941 88.0789C-67.993 88.5775 -66.9821 88.8801 -66.0778 88.5286C-65.6607 88.3664 -65.2681 88.0688 -64.8275 88.0781C-64.5384 88.0842 -64.2847 88.2216 -64.0281 88.3568C-63.9179 88.5898 -63.8095 88.8368 -63.7254 89.1396C-63.4175 90.2474 -63.6279 91.477 -63.7296 92.6325C-63.8373 93.8548 -64.1411 95.1748 -65.0152 95.8467L-81.5014 95.9112V79.0858H-81.026L-101.07 64.6419L-120.959 79.0858H-120.464V95.9112H-139.967V40.7567H-172.767V95.9112H-188.471V80.6144L-193.897 75.5848V60.5485H-193.924L-207.394 51.1005L-220.864 60.5485H-220.891V95.9112H-231.362V75.5983L-249.293 61.0459L-267.099 75.4974V95.9112H-299.067V354.295H641.646C641.646 354.295 640.971 95.9112 641.646 95.9112Z" fill="#FDEEF3"/>
<path d="M1579.07 95.9112H1561.95V38.2146H1527.64V95.9112H1517.41V90.0971C1520.07 89.9025 1522.18 87.7375 1522.18 85.0892C1522.18 82.3129 1519.87 77.8019 1517.02 77.8019C1514.17 77.8019 1511.86 82.3129 1511.86 85.0892C1511.86 87.7375 1513.96 89.9025 1516.63 90.0971V95.9112C1516.63 95.8448 1504.71 95.9112 1504.71 95.9112V90.0971C1507.38 89.9025 1509.48 87.7375 1509.48 85.0892C1509.48 82.3129 1507.17 77.8019 1504.33 77.8019C1501.48 77.8019 1499.17 82.3129 1499.17 85.0892C1499.17 87.7375 1501.27 89.9025 1503.94 90.0971V95.9112H1447.36V90.0971C1450.02 89.9025 1452.12 87.7375 1452.12 85.0892C1452.12 82.3129 1449.82 77.8019 1446.97 77.8019C1444.12 77.8019 1441.81 82.3129 1441.81 85.0892C1441.81 87.7375 1443.91 89.9025 1446.58 90.0971V95.9112C1446.58 95.8582 1432.31 95.9112 1432.31 95.9112C1431.41 93.7185 1430.44 91.4613 1430.88 88.7523C1430.9 88.6427 1430.92 88.5322 1430.93 88.4215C1431.63 88.1533 1432.33 87.7298 1433.06 87.7354C1433.41 87.738 1433.75 87.8384 1434.09 87.7832C1434.95 87.6446 1435.44 86.6283 1436.26 86.3072C1436.67 86.1429 1437.14 86.1785 1437.56 86.0449C1438.8 85.6592 1439.24 84.1306 1439.46 82.8494C1439.64 81.8743 1439.81 80.8991 1439.99 79.924C1440.12 79.2102 1440.24 78.479 1440.13 77.7731C1440.01 77.0671 1439.59 76.3794 1438.92 76.1502C1439.14 73.795 1437.72 71.4433 1435.58 70.5945C1435.16 70.4307 1434.72 70.3144 1434.37 70.0493C1434.08 69.8367 1433.87 69.5413 1433.63 69.2823C1432.48 68.061 1430.78 67.9342 1429.22 68.4122C1428.2 68.7242 1428.3 68.6659 1427.31 68.5436C1426.4 68.4309 1425.61 68.4615 1424.79 69.0242C1423.75 69.7402 1423.06 70.86 1422.26 71.8389C1421.77 72.4279 1421.22 72.9915 1420.94 73.698C1420.55 74.6526 1420.71 75.7283 1420.42 76.7134C1420.2 77.4571 1419.73 78.1384 1419.66 78.9054C1419.52 80.391 1420.89 81.5736 1420.99 83.0534C1421.05 83.9667 1420.64 85.0128 1421.17 85.7367C1421.38 86.0261 1421.71 86.1994 1422.01 86.391C1422.81 86.8966 1423.48 87.5804 1424.28 88.0789C1425.08 88.5775 1426.09 88.8801 1426.99 88.5286C1427.41 88.3664 1427.8 88.0688 1428.24 88.0781C1428.53 88.0842 1428.79 88.2216 1429.04 88.3568C1429.15 88.5898 1429.26 88.8368 1429.35 89.1396C1429.65 90.2474 1429.44 91.477 1429.34 92.6325C1429.23 93.8548 1428.93 95.1748 1428.06 95.8467L1416.8 95.9112V55.8558H1393.87V32.731H1352.59V55.2364H1329.67V95.9112H1318.89C1317.98 93.7185 1317.02 91.4613 1317.46 88.7523C1317.47 88.6427 1317.49 88.5322 1317.5 88.4215C1318.2 88.1533 1318.91 87.7298 1319.64 87.7354C1319.98 87.738 1320.32 87.8384 1320.67 87.7832C1321.53 87.6446 1322.01 86.6283 1322.83 86.3072C1323.25 86.1429 1323.71 86.1785 1324.14 86.0449C1325.37 85.6592 1325.81 84.1306 1326.04 82.8494C1326.21 81.8743 1326.39 80.8991 1326.56 79.924C1326.69 79.2102 1326.82 78.479 1326.7 77.7731C1326.58 77.0671 1326.16 76.3794 1325.5 76.1502C1325.71 73.795 1324.29 71.4433 1322.15 70.5945C1321.74 70.4307 1321.3 70.3144 1320.94 70.0493C1320.66 69.8367 1320.44 69.5413 1320.2 69.2823C1319.05 68.061 1317.36 67.9342 1315.8 68.4122C1314.77 68.7242 1314.88 68.6659 1313.89 68.5436C1312.97 68.4309 1312.18 68.4615 1311.36 69.0242C1310.32 69.7402 1309.64 70.86 1308.83 71.8389C1308.34 72.4279 1307.79 72.9915 1307.51 73.698C1307.13 74.6526 1307.28 75.7283 1306.99 76.7134C1306.77 77.4571 1306.3 78.1384 1306.23 78.9054C1306.1 80.391 1307.47 81.5736 1307.56 83.0534C1307.62 83.9667 1307.21 85.0128 1307.74 85.7367C1307.95 86.0261 1308.28 86.1994 1308.58 86.391C1309.38 86.8966 1310.05 87.5804 1310.85 88.0789C1311.65 88.5775 1312.66 88.8801 1313.57 88.5286C1313.98 88.3664 1314.38 88.0688 1314.82 88.0781C1315.11 88.0842 1315.36 88.2216 1315.62 88.3568C1315.73 88.5898 1315.84 88.8368 1315.92 89.1396C1316.23 90.2474 1316.02 91.477 1315.92 92.6325C1315.81 93.8548 1315.5 95.1748 1314.63 95.8467L1292.16 95.9112V87.5833C1295.98 87.3046 1298.99 84.2035 1298.99 80.4102C1298.99 76.4336 1295.69 69.9723 1291.61 69.9723C1287.53 69.9723 1284.22 76.4336 1284.22 80.4102C1284.22 84.2035 1287.23 87.3046 1291.05 87.5833V95.9112H1280.6V92.327V40.7352V34.0012H1256.99L1252.21 28.7141L1250.44 26.6154L1247.15 30.5178L1238.13 40.4094H1238.81L1238.53 40.7352H1238.56V95.9112H1226.74V75.5983L1208.81 61.0459L1191 75.4974V95.9112H1181.5V0.933105H1140.34V95.9112H1115.02V90.0971C1117.68 89.9025 1119.78 87.7375 1119.78 85.0892C1119.78 82.3129 1117.48 77.8019 1114.63 77.8019C1111.78 77.8019 1109.47 82.3129 1109.47 85.0892C1109.47 87.7375 1111.57 89.9025 1114.24 90.0971V95.9112H1102.32V90.0971C1104.99 89.9025 1107.09 87.7375 1107.09 85.0892C1107.09 82.3129 1104.78 77.8019 1101.93 77.8019C1099.09 77.8019 1096.78 82.3129 1096.78 85.0892C1096.78 87.7375 1098.88 89.9025 1101.55 90.0971V95.9112H1091.07V75.5983L1073.14 61.0459L1055.33 75.4974V95.9112H1035.2V41.9449H1023.45V23.2836C1023.45 23.2836 998.771 4.66393 998.771 6.1354V95.9112H987.533V24.814H985.027V26.7387H961.52V24.814H959.015V95.9112H949.664V87.5833C953.481 87.3046 956.492 84.2035 956.492 80.4102C956.492 76.4336 953.185 69.9723 949.106 69.9723C945.027 69.9723 941.721 76.4336 941.721 80.4102C941.721 84.2035 944.731 87.3046 948.549 87.5833V95.9112H936.326V20.1314H933.063V22.1829H902.458V20.1314H899.196V95.9112H891.236V90.0971C893.901 89.9025 896.003 87.7375 896.003 85.0892C896.003 82.3129 893.694 77.8019 890.847 77.8019C887.999 77.8019 885.69 82.3129 885.69 85.0892C885.69 87.7375 887.792 89.9025 890.457 90.0971V95.9112H876.662C875.76 93.7185 874.792 91.4613 875.231 88.7523C875.249 88.6427 875.265 88.5322 875.281 88.4215C875.978 88.1533 876.683 87.7298 877.412 87.7354C877.757 87.738 878.099 87.8384 878.442 87.7832C879.302 87.6446 879.787 86.6283 880.605 86.3072C881.023 86.1429 881.486 86.1785 881.914 86.0449C883.149 85.6592 883.584 84.1306 883.813 82.8494C883.988 81.8743 884.163 80.8991 884.337 79.924C884.465 79.2102 884.593 78.479 884.474 77.7731C884.356 77.0671 883.939 76.3794 883.273 76.1502C883.484 73.795 882.068 71.4433 879.927 70.5945C879.514 70.4307 879.072 70.3144 878.717 70.0493C878.432 69.8367 878.221 69.5413 877.977 69.2823C876.825 68.061 875.133 67.9342 873.571 68.4122C872.551 68.7242 872.653 68.6659 871.662 68.5436C870.748 68.4309 869.958 68.4615 869.14 69.0242C868.099 69.7402 867.412 70.86 866.605 71.8389C866.119 72.4279 865.57 72.9915 865.286 73.698C864.901 74.6526 865.055 75.7283 864.765 76.7134C864.547 77.4571 864.079 78.1384 864.008 78.9054C863.872 80.391 865.242 81.5736 865.338 83.0534C865.397 83.9667 864.985 85.0128 865.516 85.7367C865.728 86.0261 866.056 86.1994 866.358 86.391C867.154 86.8966 867.826 87.5804 868.627 88.0789C869.428 88.5775 870.439 88.8801 871.343 88.5286C871.76 88.3664 872.153 88.0688 872.594 88.0781C872.883 88.0842 873.136 88.2216 873.393 88.3568C873.503 88.5898 873.612 88.8368 873.696 89.1396C874.004 90.2474 873.793 91.477 873.691 92.6325C873.584 93.8548 873.28 95.1748 872.406 95.8467L855.92 95.9112V79.0858H856.395L836.351 64.6419L816.462 79.0858H816.957V95.9112H797.454V40.7567H764.654V95.9112H748.951V80.6144L743.525 75.5848V60.5485H743.497L730.027 51.1005L716.557 60.5485H716.53V95.9112H706.059V75.5983L688.128 61.0459L670.322 75.4974V95.9112H638.354V354.295H1579.07C1579.07 354.295 1578.39 95.9112 1579.07 95.9112Z" fill="#FDEEF3"/>
<path d="M42.0544 38.3955H38.4328V41.8519H42.0544V38.3955Z" fill="white" stroke="#E1006E" stroke-width="1.86605" stroke-linecap="round" stroke-linejoin="round"/>
<path d="M42.0544 45.3086H38.4328V48.765H42.0544V45.3086Z" fill="white" stroke="#E1006E" stroke-width="1.86605" stroke-linecap="round" stroke-linejoin="round"/>
<path d="M42.0544 52.2217H38.4328V55.6781H42.0544V52.2217Z" fill="white" stroke="#E1006E" stroke-width="1.86605" stroke-linecap="round" stroke-linejoin="round"/>
<path d="M33.272 38.3955H29.6504V41.8519H33.272V38.3955Z" fill="white" stroke="#E1006E" stroke-width="1.86605" stroke-linecap="round" stroke-linejoin="round"/>
<path d="M33.272 45.3086H29.6504V48.765H33.272V45.3086Z" fill="white" stroke="#E1006E" stroke-width="1.86605" stroke-linecap="round" stroke-linejoin="round"/>
<path d="M33.272 52.2217H29.6504V55.6781H33.272V52.2217Z" fill="white" stroke="#E1006E" stroke-width="1.86605" stroke-linecap="round" stroke-linejoin="round"/>
<path d="M94.8248 48.897H64.3903V52.2156H94.8248V48.897Z" fill="white" stroke="#E1006E" stroke-width="1.86605" stroke-linecap="round" stroke-linejoin="round"/>
<path d="M94.8248 55.5347H64.3903V58.8534H94.8248V55.5347Z" fill="white" stroke="#E1006E" stroke-width="1.86605" stroke-linecap="round" stroke-linejoin="round"/>
<path d="M94.8248 62.1724H64.3903V65.491H94.8248V62.1724Z" fill="white" stroke="#E1006E" stroke-width="1.86605" stroke-linecap="round" stroke-linejoin="round"/>
<path d="M71.0428 20.3789H67.1601V24.8178H71.0428V20.3789Z" fill="white" stroke="#E1006E" stroke-width="1.86605" stroke-linecap="round" stroke-linejoin="round"/>
<path d="M71.0428 29.2573H67.1601V33.6963H71.0428V29.2573Z" fill="white" stroke="#E1006E" stroke-width="1.86605" stroke-linecap="round" stroke-linejoin="round"/>
<path d="M71.0428 38.1348H67.1601V42.5738H71.0428V38.1348Z" fill="white" stroke="#E1006E" stroke-width="1.86605" stroke-linecap="round" stroke-linejoin="round"/>
<path d="M80.3792 29.3076H76.4965V33.7465H80.3792V29.3076Z" fill="white" stroke="#E1006E" stroke-width="1.86605" stroke-linecap="round" stroke-linejoin="round"/>
<path d="M80.324 38.0444H76.4414V42.4834H80.324V38.0444Z" fill="white" stroke="#E1006E" stroke-width="1.86605" stroke-linecap="round" stroke-linejoin="round"/>
<path d="M125.038 79.5811V84.0825H129.334V79.5811H125.038Z" fill="white" stroke="#E1006E" stroke-width="1.86605" stroke-linecap="round" stroke-linejoin="round"/>
<path d="M133.631 79.5811V84.0825H137.927V79.5811H133.631Z" fill="white" stroke="#E1006E" stroke-width="1.86605" stroke-linecap="round" stroke-linejoin="round"/>
<path d="M142.222 79.5812V84.0825H146.519V79.5812H142.222Z" fill="white" stroke="#E1006E" stroke-width="1.86605" stroke-linecap="round" stroke-linejoin="round"/>
<path d="M225.373 12.6943H221.624V18.3712H225.373V12.6943Z" fill="white" stroke="#E1006E" stroke-width="1.86605" stroke-linecap="round" stroke-linejoin="round"/>
<path d="M225.373 24.0483H221.624V29.7253H225.373V24.0483Z" fill="white" stroke="#E1006E" stroke-width="1.86605" stroke-linecap="round" stroke-linejoin="round"/>
<path d="M225.373 35.4019H221.624V41.0788H225.373V35.4019Z" fill="white" stroke="#E1006E" stroke-width="1.86605" stroke-linecap="round" stroke-linejoin="round"/>
<path d="M234.465 12.6943H230.716V18.3712H234.465V12.6943Z" fill="white" stroke="#E1006E" stroke-width="1.86605" stroke-linecap="round" stroke-linejoin="round"/>
<path d="M234.465 24.0483H230.716V29.7253H234.465V24.0483Z" fill="white" stroke="#E1006E" stroke-width="1.86605" stroke-linecap="round" stroke-linejoin="round"/>
<path d="M234.465 35.4019H230.716V41.0788H234.465V35.4019Z" fill="white" stroke="#E1006E" stroke-width="1.86605" stroke-linecap="round" stroke-linejoin="round"/>
<path d="M216.281 12.6943H212.532V18.3712H216.281V12.6943Z" fill="white" stroke="#E1006E" stroke-width="1.86605" stroke-linecap="round" stroke-linejoin="round"/>
<path d="M216.281 24.0483H212.532V29.7253H216.281V24.0483Z" fill="white" stroke="#E1006E" stroke-width="1.86605" stroke-linecap="round" stroke-linejoin="round"/>
<path d="M216.281 35.4019H212.532V41.0788H216.281V35.4019Z" fill="white" stroke="#E1006E" stroke-width="1.86605" stroke-linecap="round" stroke-linejoin="round"/>
<path d="M225.373 46.4521H221.624V52.1291H225.373V46.4521Z" fill="white" stroke="#E1006E" stroke-width="1.86605" stroke-linecap="round" stroke-linejoin="round"/>
<path d="M225.373 57.8057H221.624V63.4826H225.373V57.8057Z" fill="white" stroke="#E1006E" stroke-width="1.86605" stroke-linecap="round" stroke-linejoin="round"/>
<path d="M225.373 69.1597H221.624V74.8366H225.373V69.1597Z" fill="white" stroke="#E1006E" stroke-width="1.86605" stroke-linecap="round" stroke-linejoin="round"/>
<path d="M234.465 46.4521H230.716V52.1291H234.465V46.4521Z" fill="white" stroke="#E1006E" stroke-width="1.86605" stroke-linecap="round" stroke-linejoin="round"/>
<path d="M234.465 57.8057H230.716V63.4826H234.465V57.8057Z" fill="white" stroke="#E1006E" stroke-width="1.86605" stroke-linecap="round" stroke-linejoin="round"/>
<path d="M234.465 69.1597H230.716V74.8366H234.465V69.1597Z" fill="white" stroke="#E1006E" stroke-width="1.86605" stroke-linecap="round" stroke-linejoin="round"/>
<path d="M216.281 46.4521H212.532V52.1291H216.281V46.4521Z" fill="white" stroke="#E1006E" stroke-width="1.86605" stroke-linecap="round" stroke-linejoin="round"/>
<path d="M216.281 57.8057H212.532V63.4826H216.281V57.8057Z" fill="white" stroke="#E1006E" stroke-width="1.86605" stroke-linecap="round" stroke-linejoin="round"/>
<path d="M216.281 69.1597H212.532V74.8366H216.281V69.1597Z" fill="white" stroke="#E1006E" stroke-width="1.86605" stroke-linecap="round" stroke-linejoin="round"/>
<path d="M311.202 51.7071V56.2085H315.498V51.7071H311.202Z" fill="white" stroke="#E1006E" stroke-width="1.86605" stroke-linecap="round" stroke-linejoin="round"/>
<path d="M319.794 51.7071V56.2085H324.09V51.7071H319.794Z" fill="white" stroke="#E1006E" stroke-width="1.86605" stroke-linecap="round" stroke-linejoin="round"/>
<path d="M328.386 51.7071V56.2085H332.682V51.7071H328.386Z" fill="white" stroke="#E1006E" stroke-width="1.86605" stroke-linecap="round" stroke-linejoin="round"/>
<path d="M311.202 64.4371V68.9385H315.498V64.4371H311.202Z" fill="white" stroke="#E1006E" stroke-width="1.86605" stroke-linecap="round" stroke-linejoin="round"/>
<path d="M319.794 64.4371V68.9385H324.09V64.4371H319.794Z" fill="white" stroke="#E1006E" stroke-width="1.86605" stroke-linecap="round" stroke-linejoin="round"/>
<path d="M328.386 64.4371V68.9385H332.682V64.4371H328.386Z" fill="white" stroke="#E1006E" stroke-width="1.86605" stroke-linecap="round" stroke-linejoin="round"/>
<path d="M311.202 77.1676V81.6689H315.498V77.1676H311.202Z" fill="white" stroke="#E1006E" stroke-width="1.86605" stroke-linecap="round" stroke-linejoin="round"/>
<path d="M319.794 77.1676V81.6689H324.09V77.1676H319.794Z" fill="white" stroke="#E1006E" stroke-width="1.86605" stroke-linecap="round" stroke-linejoin="round"/>
<path d="M328.386 77.1676V81.6689H332.682V77.1676H328.386Z" fill="white" stroke="#E1006E" stroke-width="1.86605" stroke-linecap="round" stroke-linejoin="round"/>
<path d="M261.392 79.5812V84.0825H265.688V79.5812H261.392Z" fill="white" stroke="#E1006E" stroke-width="1.86605" stroke-linecap="round" stroke-linejoin="round"/>
<path d="M277.209 79.5812V84.0825H281.505V79.5812H277.209Z" fill="white" stroke="#E1006E" stroke-width="1.86605" stroke-linecap="round" stroke-linejoin="round"/>
<path d="M427.7 95.6919V82.7432C427.7 78.2634 431.331 74.6318 435.811 74.6318C440.291 74.6318 443.923 78.2634 443.923 82.7432V95.6919H427.7Z" fill="white" stroke="#E1006E" stroke-width="1.86605" stroke-linecap="round" stroke-linejoin="round"/>
<path d="M435.811 54.8229C440.077 54.8229 443.534 51.3651 443.534 47.0997C443.534 42.8343 440.077 39.3765 435.811 39.3765C431.546 39.3765 428.088 42.8343 428.088 47.0997C428.088 51.3651 431.546 54.8229 435.811 54.8229Z" fill="white" stroke="#E1006E" stroke-width="1.86605" stroke-linecap="round" stroke-linejoin="round"/>
<path d="M435.981 43.2378V47.0114H439.216" stroke="#E1006E" stroke-width="1.86605" stroke-linecap="round" stroke-linejoin="round"/>
<path d="M399.494 62.7861V68.6538H405.094V62.7861H399.494Z" fill="white" stroke="#E1006E" stroke-width="1.86605" stroke-linecap="round" stroke-linejoin="round"/>
<path d="M409.88 62.7861V68.6538H415.48V62.7861H409.88Z" fill="white" stroke="#E1006E" stroke-width="1.86605" stroke-linecap="round" stroke-linejoin="round"/>
<path d="M399.494 72.1835V78.0513H405.094V72.1835H399.494Z" fill="white" stroke="#E1006E" stroke-width="1.86605" stroke-linecap="round" stroke-linejoin="round"/>
<path d="M409.88 72.1835V78.0513H415.48V72.1835H409.88Z" fill="white" stroke="#E1006E" stroke-width="1.86605" stroke-linecap="round" stroke-linejoin="round"/>
<path d="M456.123 62.7861V68.6538H461.723V62.7861H456.123Z" fill="white" stroke="#E1006E" stroke-width="1.86605" stroke-linecap="round" stroke-linejoin="round"/>
<path d="M466.51 62.7861V68.6538H472.11V62.7861H466.51Z" fill="white" stroke="#E1006E" stroke-width="1.86605" stroke-linecap="round" stroke-linejoin="round"/>
<path d="M456.123 72.1835V78.0513H461.723V72.1835H456.123Z" fill="white" stroke="#E1006E" stroke-width="1.86605" stroke-linecap="round" stroke-linejoin="round"/>
<path d="M466.51 72.1835V78.0513H472.11V72.1835H466.51Z" fill="white" stroke="#E1006E" stroke-width="1.86605" stroke-linecap="round" stroke-linejoin="round"/>
<path d="M420.975 63.0142V68.4902H426.575V63.0142H420.975Z" fill="white" stroke="#E1006E" stroke-width="1.86605" stroke-linecap="round" stroke-linejoin="round"/>
<path d="M433.011 63.0142V68.4902H438.611V63.0142H433.011Z" fill="white" stroke="#E1006E" stroke-width="1.86605" stroke-linecap="round" stroke-linejoin="round"/>
<path d="M445.047 62.9752V68.4512H450.647V62.9752H445.047Z" fill="white" stroke="#E1006E" stroke-width="1.86605" stroke-linecap="round" stroke-linejoin="round"/>
<path d="M608.939 46.9497H605.813V50.3983H608.939V46.9497Z" fill="white" stroke="#E1006E" stroke-width="1.86605" stroke-linecap="round" stroke-linejoin="round"/>
<path d="M608.939 53.8467H605.813V57.2953H608.939V53.8467Z" fill="white" stroke="#E1006E" stroke-width="1.86605" stroke-linecap="round" stroke-linejoin="round"/>
<path d="M608.939 60.7437H605.813V64.1923H608.939V60.7437Z" fill="white" stroke="#E1006E" stroke-width="1.86605" stroke-linecap="round" stroke-linejoin="round"/>
<path d="M616.52 46.9497H613.394V50.3983H616.52V46.9497Z" fill="white" stroke="#E1006E" stroke-width="1.86605" stroke-linecap="round" stroke-linejoin="round"/>
<path d="M616.52 53.8467H613.394V57.2953H616.52V53.8467Z" fill="white" stroke="#E1006E" stroke-width="1.86605" stroke-linecap="round" stroke-linejoin="round"/>
<path d="M616.52 60.7437H613.394V64.1923H616.52V60.7437Z" fill="white" stroke="#E1006E" stroke-width="1.86605" stroke-linecap="round" stroke-linejoin="round"/>
<path d="M601.359 46.9497H598.233V50.3983H601.359V46.9497Z" fill="white" stroke="#E1006E" stroke-width="1.86605" stroke-linecap="round" stroke-linejoin="round"/>
<path d="M601.359 53.8467H598.233V57.2953H601.359V53.8467Z" fill="white" stroke="#E1006E" stroke-width="1.86605" stroke-linecap="round" stroke-linejoin="round"/>
<path d="M601.359 60.7437H598.233V64.1923H601.359V60.7437Z" fill="white" stroke="#E1006E" stroke-width="1.86605" stroke-linecap="round" stroke-linejoin="round"/>
<path d="M641.646 95.9112H624.532V38.2146H590.221V95.9112H579.987V90.0971C582.652 89.9025 584.754 87.7374 584.754 85.0892C584.754 82.3129 582.446 77.8019 579.598 77.8019C576.75 77.8019 574.442 82.3129 574.442 85.0892C574.442 87.7374 576.543 89.9025 579.209 90.0971V95.9112C579.209 95.8448 567.294 95.9112 567.294 95.9112V90.0971C569.959 89.9025 572.061 87.7374 572.061 85.0892C572.061 82.3129 569.752 77.8019 566.904 77.8019C564.057 77.8019 561.748 82.3129 561.748 85.0892C561.748 87.7374 563.85 89.9025 566.515 90.0971V95.9112H509.936V90.0971C512.601 89.9025 514.703 87.7374 514.703 85.0892C514.703 82.3129 512.394 77.8019 509.547 77.8019C506.699 77.8019 504.39 82.3129 504.39 85.0892C504.39 87.7374 506.492 89.9025 509.158 90.0971V95.9112C509.158 95.8581 494.892 95.9112 494.892 95.9112C493.989 93.7185 493.022 91.4613 493.461 88.7522C493.479 88.6427 493.494 88.5321 493.51 88.4215C494.207 88.1533 494.913 87.7298 495.642 87.7354C495.987 87.738 496.329 87.8384 496.672 87.7832C497.531 87.6446 498.017 86.6283 498.834 86.3071C499.252 86.1429 499.716 86.1785 500.144 86.0449C501.378 85.6592 501.814 84.1306 502.043 82.8494C502.218 81.8742 502.392 80.8991 502.567 79.924C502.695 79.2101 502.823 78.479 502.704 77.7731C502.586 77.0671 502.169 76.3794 501.503 76.1502C501.714 73.795 500.298 71.4433 498.157 70.5945C497.744 70.4307 497.302 70.3144 496.946 70.0493C496.661 69.8367 496.45 69.5413 496.206 69.2823C495.054 68.061 493.363 67.9342 491.801 68.4122C490.781 68.7242 490.883 68.6659 489.891 68.5436C488.978 68.4309 488.188 68.4615 487.37 69.0242C486.329 69.7401 485.642 70.86 484.834 71.8388C484.349 72.4279 483.8 72.9915 483.516 73.698C483.131 74.6526 483.284 75.7283 482.995 76.7134C482.776 77.457 482.309 78.1384 482.238 78.9054C482.101 80.391 483.472 81.5736 483.568 83.0534C483.627 83.9667 483.215 85.0128 483.746 85.7367C483.958 86.0261 484.285 86.1993 484.587 86.391C485.384 86.8966 486.056 87.5804 486.857 88.0789C487.658 88.5775 488.669 88.8801 489.573 88.5286C489.99 88.3664 490.383 88.0688 490.823 88.0781C491.112 88.0842 491.366 88.2216 491.623 88.3568C491.733 88.5897 491.841 88.8368 491.925 89.1396C492.233 90.2473 492.023 91.477 491.921 92.6324C491.814 93.8548 491.51 95.1748 490.636 95.8467L479.377 95.9112V55.8558H456.444V32.731H415.164V55.2364H392.246V95.9112H381.465C380.562 93.7185 379.595 91.4613 380.034 88.7522C380.052 88.6427 380.068 88.5321 380.084 88.4215C380.781 88.1533 381.486 87.7298 382.215 87.7354C382.56 87.738 382.902 87.8384 383.245 87.7832C384.105 87.6446 384.59 86.6283 385.408 86.3071C385.826 86.1429 386.289 86.1785 386.717 86.0449C387.951 85.6592 388.387 84.1306 388.616 82.8494C388.791 81.8742 388.965 80.8991 389.14 79.924C389.268 79.2101 389.396 78.479 389.277 77.7731C389.159 77.0671 388.742 76.3794 388.076 76.1502C388.287 73.795 386.871 71.4433 384.73 70.5945C384.317 70.4307 383.875 70.3144 383.52 70.0493C383.235 69.8367 383.024 69.5413 382.78 69.2823C381.628 68.061 379.936 67.9342 378.374 68.4122C377.354 68.7242 377.456 68.6659 376.465 68.5436C375.551 68.4309 374.761 68.4615 373.943 69.0242C372.902 69.7401 372.215 70.86 371.408 71.8388C370.922 72.4279 370.373 72.9915 370.089 73.698C369.704 74.6526 369.858 75.7283 369.568 76.7134C369.35 77.457 368.882 78.1384 368.811 78.9054C368.675 80.391 370.045 81.5736 370.141 83.0534C370.2 83.9667 369.788 85.0128 370.319 85.7367C370.531 86.0261 370.859 86.1993 371.161 86.391C371.957 86.8966 372.629 87.5804 373.43 88.0789C374.231 88.5775 375.242 88.8801 376.146 88.5286C376.563 88.3664 376.956 88.0688 377.397 88.0781C377.686 88.0842 377.939 88.2216 378.196 88.3568C378.306 88.5897 378.415 88.8368 378.499 89.1396C378.807 90.2473 378.596 91.477 378.494 92.6324C378.387 93.8548 378.083 95.1748 377.209 95.8467L354.743 95.9112V87.5833C358.56 87.3046 361.571 84.2035 361.571 80.4102C361.571 76.4336 358.264 69.9723 354.185 69.9723C350.106 69.9723 346.799 76.4336 346.799 80.4102C346.799 84.2035 349.81 87.3046 353.628 87.5833V95.9112H343.176V92.327V40.7352V34.0012H319.571L314.791 28.7141L313.021 26.6154L309.729 30.5178L300.708 40.4094H301.386L301.111 40.7352H301.143V95.9112H289.317V75.5983L271.386 61.0459L253.58 75.4974V95.9112H244.075V0.933105H202.922V95.9112H177.596V90.0971C180.261 89.9025 182.363 87.7374 182.363 85.0892C182.363 82.3129 180.055 77.8019 177.207 77.8019C174.359 77.8019 172.051 82.3129 172.051 85.0892C172.051 87.7374 174.152 89.9025 176.818 90.0971V95.9112H164.903V90.0971C167.568 89.9025 169.67 87.7374 169.67 85.0892C169.67 82.3129 167.361 77.8019 164.513 77.8019C161.666 77.8019 159.357 82.3129 159.357 85.0892C159.357 87.7374 161.459 89.9025 164.124 90.0971V95.9112H153.647V75.5983L135.716 61.0459L117.91 75.4974V95.9112H97.7767V41.9448H86.026V23.2836C86.026 23.2836 61.3498 4.66393 61.3498 6.1354V95.9112H50.1113V24.814H47.6058V26.7387H24.0991V24.814H21.5935V95.9112H12.2425V87.5833C16.0601 87.3046 19.0707 84.2035 19.0707 80.4102C19.0707 76.4336 15.7641 69.9723 11.6851 69.9723C7.60598 69.9723 4.29932 76.4336 4.29932 80.4102C4.29932 84.2035 7.30991 87.3046 11.1277 87.5833V95.9112H-1.09558V20.1314H-4.35786V22.1829H-34.9633V20.1314H-38.2256V95.9112H-46.1855V90.0971C-43.5202 89.9025 -41.4183 87.7374 -41.4183 85.0892C-41.4183 82.3129 -43.7269 77.8019 -46.5746 77.8019C-49.4225 77.8019 -51.731 82.3129 -51.731 85.0892C-51.731 87.7374 -49.6291 89.9025 -46.9638 90.0971V95.9112H-60.7588C-61.6616 93.7185 -62.629 91.4613 -62.19 88.7522C-62.1723 88.6427 -62.1563 88.5321 -62.1405 88.4215C-61.4434 88.1533 -60.7377 87.7298 -60.0088 87.7354C-59.6639 87.738 -59.3221 87.8384 -58.9793 87.7832C-58.1194 87.6446 -57.634 86.6283 -56.8165 86.3071C-56.3984 86.1429 -55.9347 86.1785 -55.5071 86.0449C-54.2726 85.6592 -53.8371 84.1306 -53.6077 82.8494C-53.4332 81.8742 -53.2586 80.8991 -53.084 79.924C-52.9562 79.2101 -52.8282 78.479 -52.9467 77.7731C-53.0652 77.0671 -53.4817 76.3794 -54.1482 76.1502C-53.9367 73.795 -55.3529 71.4433 -57.494 70.5945C-57.9071 70.4307 -58.3492 70.3144 -58.7045 70.0493C-58.9894 69.8367 -59.2003 69.5413 -59.4446 69.2823C-60.5966 68.061 -62.2877 67.9342 -63.8502 68.4122C-64.8703 68.7242 -64.7683 68.6659 -65.7594 68.5436C-66.6731 68.4309 -67.4628 68.4615 -68.2809 69.0242C-69.3218 69.7401 -70.0093 70.86 -70.8165 71.8388C-71.3023 72.4279 -71.8508 72.9915 -72.1353 73.698C-72.5199 74.6526 -72.3664 75.7283 -72.656 76.7134C-72.8745 77.457 -73.3421 78.1384 -73.4127 78.9054C-73.5494 80.391 -72.1793 81.5736 -72.0834 83.0534C-72.0241 83.9667 -72.4356 85.0128 -71.9053 85.7367C-71.6933 86.0261 -71.3655 86.1993 -71.0636 86.391C-70.2669 86.8966 -69.5951 87.5804 -68.7941 88.0789C-67.993 88.5775 -66.9821 88.8801 -66.0778 88.5286C-65.6607 88.3664 -65.2681 88.0688 -64.8274 88.0781C-64.5384 88.0842 -64.2847 88.2216 -64.0281 88.3568C-63.9179 88.5897 -63.8095 88.8368 -63.7254 89.1396C-63.4175 90.2473 -63.6279 91.477 -63.7296 92.6324C-63.8373 93.8548 -64.1411 95.1748 -65.0152 95.8467L-81.5014 95.9112V79.0858H-81.026L-101.07 64.6419L-120.959 79.0858H-120.464V95.9112H-139.967V40.7567H-172.767V95.9112H-188.471V80.6144L-193.897 75.5848V60.5485H-193.924L-207.394 51.1004L-220.864 60.5485H-220.891V95.9112H-231.362V75.5983L-249.293 61.0459L-267.099 75.4974V95.9112H-299.067" stroke="#E1006E" stroke-width="1.86605" stroke-linecap="round" stroke-linejoin="round"/>
<path d="M782.548 49.0972H779.56V52.3938H782.548V49.0972Z" fill="white" stroke="#E1006E" stroke-width="1.86605" stroke-linecap="round" stroke-linejoin="round"/>
<path d="M782.548 55.6904H779.56V58.9871H782.548V55.6904Z" fill="white" stroke="#E1006E" stroke-width="1.86605" stroke-linecap="round" stroke-linejoin="round"/>
<path d="M782.548 62.2837H779.56V65.5804H782.548V62.2837Z" fill="white" stroke="#E1006E" stroke-width="1.86605" stroke-linecap="round" stroke-linejoin="round"/>
<path d="M789.795 49.0972H786.807V52.3938H789.795V49.0972Z" fill="white" stroke="#E1006E" stroke-width="1.86605" stroke-linecap="round" stroke-linejoin="round"/>
<path d="M789.795 55.6904H786.807V58.9871H789.795V55.6904Z" fill="white" stroke="#E1006E" stroke-width="1.86605" stroke-linecap="round" stroke-linejoin="round"/>
<path d="M789.795 62.2837H786.807V65.5804H789.795V62.2837Z" fill="white" stroke="#E1006E" stroke-width="1.86605" stroke-linecap="round" stroke-linejoin="round"/>
<path d="M775.302 49.0972H772.314V52.3938H775.302V49.0972Z" fill="white" stroke="#E1006E" stroke-width="1.86605" stroke-linecap="round" stroke-linejoin="round"/>
<path d="M775.302 55.6904H772.314V58.9871H775.302V55.6904Z" fill="white" stroke="#E1006E" stroke-width="1.86605" stroke-linecap="round" stroke-linejoin="round"/>
<path d="M775.302 62.2837H772.314V65.5804H775.302V62.2837Z" fill="white" stroke="#E1006E" stroke-width="1.86605" stroke-linecap="round" stroke-linejoin="round"/>
<path d="M677.451 79.5812V84.0825H681.747V79.5812H677.451Z" fill="white" stroke="#E1006E" stroke-width="1.86605" stroke-linecap="round" stroke-linejoin="round"/>
<path d="M686.043 79.5812V84.0825H690.339V79.5812H686.043Z" fill="white" stroke="#E1006E" stroke-width="1.86605" stroke-linecap="round" stroke-linejoin="round"/>
<path d="M694.635 79.5811V84.0825H698.931V79.5811H694.635Z" fill="white" stroke="#E1006E" stroke-width="1.86605" stroke-linecap="round" stroke-linejoin="round"/>
<path d="M739.48 82.4206V92.6431H744.725V82.4206H739.48Z" fill="white" stroke="#E1006E" stroke-width="1.86605" stroke-linecap="round" stroke-linejoin="round"/>
<path d="M732.1 64.5383V71.2017H735.837V64.5383H732.1Z" fill="white" stroke="#E1006E" stroke-width="1.86605" stroke-linecap="round" stroke-linejoin="round"/>
<path d="M721.577 64.5383V71.2017H725.314V64.5383H721.577Z" fill="white" stroke="#E1006E" stroke-width="1.86605" stroke-linecap="round" stroke-linejoin="round"/>
<path d="M725.42 81.5465V86.646H733.068V81.5465H725.42Z" fill="white" stroke="#E1006E" stroke-width="1.86605" stroke-linecap="round" stroke-linejoin="round"/>
<path d="M979.476 38.3955H975.854V41.8519H979.476V38.3955Z" fill="white" stroke="#E1006E" stroke-width="1.86605" stroke-linecap="round" stroke-linejoin="round"/>
<path d="M979.476 45.3086H975.854V48.765H979.476V45.3086Z" fill="white" stroke="#E1006E" stroke-width="1.86605" stroke-linecap="round" stroke-linejoin="round"/>
<path d="M979.476 52.2217H975.854V55.6781H979.476V52.2217Z" fill="white" stroke="#E1006E" stroke-width="1.86605" stroke-linecap="round" stroke-linejoin="round"/>
<path d="M970.693 38.3955H967.072V41.8519H970.693V38.3955Z" fill="white" stroke="#E1006E" stroke-width="1.86605" stroke-linecap="round" stroke-linejoin="round"/>
<path d="M970.693 45.3086H967.072V48.765H970.693V45.3086Z" fill="white" stroke="#E1006E" stroke-width="1.86605" stroke-linecap="round" stroke-linejoin="round"/>
<path d="M970.693 52.2217H967.072V55.6781H970.693V52.2217Z" fill="white" stroke="#E1006E" stroke-width="1.86605" stroke-linecap="round" stroke-linejoin="round"/>
<path d="M920.437 30.1353H916.487V34.879H920.437V30.1353Z" fill="white" stroke="#E1006E" stroke-width="1.86605" stroke-linecap="round" stroke-linejoin="round"/>
<path d="M920.437 39.6226H916.487V44.3663H920.437V39.6226Z" fill="white" stroke="#E1006E" stroke-width="1.86605" stroke-linecap="round" stroke-linejoin="round"/>
<path d="M920.437 49.1104H916.487V53.8541H920.437V49.1104Z" fill="white" stroke="#E1006E" stroke-width="1.86605" stroke-linecap="round" stroke-linejoin="round"/>
<path d="M930.015 30.1353H926.065V34.879H930.015V30.1353Z" fill="white" stroke="#E1006E" stroke-width="1.86605" stroke-linecap="round" stroke-linejoin="round"/>
<path d="M930.015 39.6226H926.065V44.3663H930.015V39.6226Z" fill="white" stroke="#E1006E" stroke-width="1.86605" stroke-linecap="round" stroke-linejoin="round"/>
<path d="M930.015 49.1104H926.065V53.8541H930.015V49.1104Z" fill="white" stroke="#E1006E" stroke-width="1.86605" stroke-linecap="round" stroke-linejoin="round"/>
<path d="M910.858 30.1353H906.908V34.879H910.858V30.1353Z" fill="white" stroke="#E1006E" stroke-width="1.86605" stroke-linecap="round" stroke-linejoin="round"/>
<path d="M910.858 39.6226H906.908V44.3663H910.858V39.6226Z" fill="white" stroke="#E1006E" stroke-width="1.86605" stroke-linecap="round" stroke-linejoin="round"/>
<path d="M910.858 49.1104H906.908V53.8541H910.858V49.1104Z" fill="white" stroke="#E1006E" stroke-width="1.86605" stroke-linecap="round" stroke-linejoin="round"/>
<path d="M1032.25 48.897H1001.81V52.2156H1032.25V48.897Z" fill="white" stroke="#E1006E" stroke-width="1.86605" stroke-linecap="round" stroke-linejoin="round"/>
<path d="M1032.25 55.5347H1001.81V58.8534H1032.25V55.5347Z" fill="white" stroke="#E1006E" stroke-width="1.86605" stroke-linecap="round" stroke-linejoin="round"/>
<path d="M1032.25 62.1724H1001.81V65.491H1032.25V62.1724Z" fill="white" stroke="#E1006E" stroke-width="1.86605" stroke-linecap="round" stroke-linejoin="round"/>
<path d="M1008.46 20.3789H1004.58V24.8178H1008.46V20.3789Z" fill="white" stroke="#E1006E" stroke-width="1.86605" stroke-linecap="round" stroke-linejoin="round"/>
<path d="M1008.46 29.2573H1004.58V33.6963H1008.46V29.2573Z" fill="white" stroke="#E1006E" stroke-width="1.86605" stroke-linecap="round" stroke-linejoin="round"/>
<path d="M1008.46 38.1348H1004.58V42.5738H1008.46V38.1348Z" fill="white" stroke="#E1006E" stroke-width="1.86605" stroke-linecap="round" stroke-linejoin="round"/>
<path d="M1017.8 29.3076H1013.92V33.7465H1017.8V29.3076Z" fill="white" stroke="#E1006E" stroke-width="1.86605" stroke-linecap="round" stroke-linejoin="round"/>
<path d="M1017.75 38.0444H1013.86V42.4834H1017.75V38.0444Z" fill="white" stroke="#E1006E" stroke-width="1.86605" stroke-linecap="round" stroke-linejoin="round"/>
<path d="M1062.46 79.5811V84.0825H1066.76V79.5811H1062.46Z" fill="white" stroke="#E1006E" stroke-width="1.86605" stroke-linecap="round" stroke-linejoin="round"/>
<path d="M1071.05 79.5811V84.0825H1075.35V79.5811H1071.05Z" fill="white" stroke="#E1006E" stroke-width="1.86605" stroke-linecap="round" stroke-linejoin="round"/>
<path d="M1079.64 79.5811V84.0825H1083.94V79.5811H1079.64Z" fill="white" stroke="#E1006E" stroke-width="1.86605" stroke-linecap="round" stroke-linejoin="round"/>
<path d="M1162.79 12.6943H1159.05V18.3712H1162.79V12.6943Z" fill="white" stroke="#E1006E" stroke-width="1.86605" stroke-linecap="round" stroke-linejoin="round"/>
<path d="M1162.79 24.0483H1159.05V29.7253H1162.79V24.0483Z" fill="white" stroke="#E1006E" stroke-width="1.86605" stroke-linecap="round" stroke-linejoin="round"/>
<path d="M1162.79 35.4019H1159.05V41.0788H1162.79V35.4019Z" fill="white" stroke="#E1006E" stroke-width="1.86605" stroke-linecap="round" stroke-linejoin="round"/>
<path d="M1171.89 12.6943H1168.14V18.3712H1171.89V12.6943Z" fill="white" stroke="#E1006E" stroke-width="1.86605" stroke-linecap="round" stroke-linejoin="round"/>
<path d="M1171.89 24.0483H1168.14V29.7253H1171.89V24.0483Z" fill="white" stroke="#E1006E" stroke-width="1.86605" stroke-linecap="round" stroke-linejoin="round"/>
<path d="M1171.89 35.4019H1168.14V41.0788H1171.89V35.4019Z" fill="white" stroke="#E1006E" stroke-width="1.86605" stroke-linecap="round" stroke-linejoin="round"/>
<path d="M1153.7 12.6943H1149.95V18.3712H1153.7V12.6943Z" fill="white" stroke="#E1006E" stroke-width="1.86605" stroke-linecap="round" stroke-linejoin="round"/>
<path d="M1153.7 24.0483H1149.95V29.7253H1153.7V24.0483Z" fill="white" stroke="#E1006E" stroke-width="1.86605" stroke-linecap="round" stroke-linejoin="round"/>
<path d="M1153.7 35.4019H1149.95V41.0788H1153.7V35.4019Z" fill="white" stroke="#E1006E" stroke-width="1.86605" stroke-linecap="round" stroke-linejoin="round"/>
<path d="M1162.79 46.4521H1159.05V52.1291H1162.79V46.4521Z" fill="white" stroke="#E1006E" stroke-width="1.86605" stroke-linecap="round" stroke-linejoin="round"/>
<path d="M1162.79 57.8057H1159.05V63.4826H1162.79V57.8057Z" fill="white" stroke="#E1006E" stroke-width="1.86605" stroke-linecap="round" stroke-linejoin="round"/>
<path d="M1162.79 69.1597H1159.05V74.8366H1162.79V69.1597Z" fill="white" stroke="#E1006E" stroke-width="1.86605" stroke-linecap="round" stroke-linejoin="round"/>
<path d="M1171.89 46.4521H1168.14V52.1291H1171.89V46.4521Z" fill="white" stroke="#E1006E" stroke-width="1.86605" stroke-linecap="round" stroke-linejoin="round"/>
<path d="M1171.89 57.8057H1168.14V63.4826H1171.89V57.8057Z" fill="white" stroke="#E1006E" stroke-width="1.86605" stroke-linecap="round" stroke-linejoin="round"/>
<path d="M1171.89 69.1597H1168.14V74.8366H1171.89V69.1597Z" fill="white" stroke="#E1006E" stroke-width="1.86605" stroke-linecap="round" stroke-linejoin="round"/>
<path d="M1153.7 46.4521H1149.95V52.1291H1153.7V46.4521Z" fill="white" stroke="#E1006E" stroke-width="1.86605" stroke-linecap="round" stroke-linejoin="round"/>
<path d="M1153.7 57.8057H1149.95V63.4826H1153.7V57.8057Z" fill="white" stroke="#E1006E" stroke-width="1.86605" stroke-linecap="round" stroke-linejoin="round"/>
<path d="M1153.7 69.1597H1149.95V74.8366H1153.7V69.1597Z" fill="white" stroke="#E1006E" stroke-width="1.86605" stroke-linecap="round" stroke-linejoin="round"/>
<path d="M1248.62 51.7071V56.2085H1252.92V51.7071H1248.62Z" fill="white" stroke="#E1006E" stroke-width="1.86605" stroke-linecap="round" stroke-linejoin="round"/>
<path d="M1257.22 51.7071V56.2085H1261.51V51.7071H1257.22Z" fill="white" stroke="#E1006E" stroke-width="1.86605" stroke-linecap="round" stroke-linejoin="round"/>
<path d="M1265.81 51.7073V56.2085H1270.1V51.7073H1265.81Z" fill="white" stroke="#E1006E" stroke-width="1.86605" stroke-linecap="round" stroke-linejoin="round"/>
<path d="M1248.62 64.4371V68.9385H1252.92V64.4371H1248.62Z" fill="white" stroke="#E1006E" stroke-width="1.86605" stroke-linecap="round" stroke-linejoin="round"/>
<path d="M1257.22 64.4371V68.9385H1261.51V64.4371H1257.22Z" fill="white" stroke="#E1006E" stroke-width="1.86605" stroke-linecap="round" stroke-linejoin="round"/>
<path d="M1265.81 64.4372V68.9385H1270.1V64.4372H1265.81Z" fill="white" stroke="#E1006E" stroke-width="1.86605" stroke-linecap="round" stroke-linejoin="round"/>
<path d="M1248.62 77.1676V81.6689H1252.92V77.1676H1248.62Z" fill="white" stroke="#E1006E" stroke-width="1.86605" stroke-linecap="round" stroke-linejoin="round"/>
<path d="M1257.22 77.1676V81.6689H1261.51V77.1676H1257.22Z" fill="white" stroke="#E1006E" stroke-width="1.86605" stroke-linecap="round" stroke-linejoin="round"/>
<path d="M1265.81 77.1672V81.6685H1270.1V77.1672H1265.81Z" fill="white" stroke="#E1006E" stroke-width="1.86605" stroke-linecap="round" stroke-linejoin="round"/>
<path d="M1198.81 79.5811V84.0825H1203.11V79.5811H1198.81Z" fill="white" stroke="#E1006E" stroke-width="1.86605" stroke-linecap="round" stroke-linejoin="round"/>
<path d="M1214.63 79.5811V84.0825H1218.93V79.5811H1214.63Z" fill="white" stroke="#E1006E" stroke-width="1.86605" stroke-linecap="round" stroke-linejoin="round"/>
<path d="M1365.12 95.6919V82.7432C1365.12 78.2634 1368.75 74.6318 1373.23 74.6318C1377.71 74.6318 1381.34 78.2634 1381.34 82.7432V95.6919H1365.12Z" fill="white" stroke="#E1006E" stroke-width="1.86605" stroke-linecap="round" stroke-linejoin="round"/>
<path d="M1373.23 54.8229C1377.5 54.8229 1380.96 51.3651 1380.96 47.0997C1380.96 42.8343 1377.5 39.3765 1373.23 39.3765C1368.97 39.3765 1365.51 42.8343 1365.51 47.0997C1365.51 51.3651 1368.97 54.8229 1373.23 54.8229Z" fill="white" stroke="#E1006E" stroke-width="1.86605" stroke-linecap="round" stroke-linejoin="round"/>
<path d="M1373.4 43.2378V47.0114H1376.64" stroke="#E1006E" stroke-width="1.86605" stroke-linecap="round" stroke-linejoin="round"/>
<path d="M1336.91 62.786V68.6538H1342.52V62.786H1336.91Z" fill="white" stroke="#E1006E" stroke-width="1.86605" stroke-linecap="round" stroke-linejoin="round"/>
<path d="M1347.3 62.786V68.6538H1352.9V62.786H1347.3Z" fill="white" stroke="#E1006E" stroke-width="1.86605" stroke-linecap="round" stroke-linejoin="round"/>
<path d="M1336.91 72.1839V78.0518H1342.52V72.1839H1336.91Z" fill="white" stroke="#E1006E" stroke-width="1.86605" stroke-linecap="round" stroke-linejoin="round"/>
<path d="M1347.3 72.1835V78.0513H1352.9V72.1835H1347.3Z" fill="white" stroke="#E1006E" stroke-width="1.86605" stroke-linecap="round" stroke-linejoin="round"/>
<path d="M1393.54 62.7862V68.6538H1399.14V62.7862H1393.54Z" fill="white" stroke="#E1006E" stroke-width="1.86605" stroke-linecap="round" stroke-linejoin="round"/>
<path d="M1403.93 62.786V68.6538H1409.53V62.786H1403.93Z" fill="white" stroke="#E1006E" stroke-width="1.86605" stroke-linecap="round" stroke-linejoin="round"/>
<path d="M1393.54 72.1836V78.0513H1399.14V72.1836H1393.54Z" fill="white" stroke="#E1006E" stroke-width="1.86605" stroke-linecap="round" stroke-linejoin="round"/>
<path d="M1403.93 72.1839V78.0518H1409.53V72.1839H1403.93Z" fill="white" stroke="#E1006E" stroke-width="1.86605" stroke-linecap="round" stroke-linejoin="round"/>
<path d="M1358.4 63.0142V68.4902H1364V63.0142H1358.4Z" fill="white" stroke="#E1006E" stroke-width="1.86605" stroke-linecap="round" stroke-linejoin="round"/>
<path d="M1370.43 63.0142V68.4902H1376.03V63.0142H1370.43Z" fill="white" stroke="#E1006E" stroke-width="1.86605" stroke-linecap="round" stroke-linejoin="round"/>
<path d="M1382.47 62.9752V68.4512H1388.07V62.9752H1382.47Z" fill="white" stroke="#E1006E" stroke-width="1.86605" stroke-linecap="round" stroke-linejoin="round"/>
<path d="M1579.07 95.9112H1561.95V38.2146H1527.64V95.9112H1517.41V90.0971C1520.07 89.9025 1522.18 87.7374 1522.18 85.0892C1522.18 82.3129 1519.87 77.8019 1517.02 77.8019C1514.17 77.8019 1511.86 82.3129 1511.86 85.0892C1511.86 87.7374 1513.96 89.9025 1516.63 90.0971V95.9112C1516.63 95.8448 1504.71 95.9112 1504.71 95.9112V90.0971C1507.38 89.9025 1509.48 87.7374 1509.48 85.0892C1509.48 82.3129 1507.17 77.8019 1504.33 77.8019C1501.48 77.8019 1499.17 82.3129 1499.17 85.0892C1499.17 87.7374 1501.27 89.9025 1503.94 90.0971V95.9112H1447.36V90.0971C1450.02 89.9025 1452.12 87.7374 1452.12 85.0892C1452.12 82.3129 1449.82 77.8019 1446.97 77.8019C1444.12 77.8019 1441.81 82.3129 1441.81 85.0892C1441.81 87.7374 1443.91 89.9025 1446.58 90.0971V95.9112C1446.58 95.8581 1432.31 95.9112 1432.31 95.9112C1431.41 93.7185 1430.44 91.4613 1430.88 88.7522C1430.9 88.6427 1430.92 88.5321 1430.93 88.4215C1431.63 88.1533 1432.33 87.7298 1433.06 87.7354C1433.41 87.738 1433.75 87.8384 1434.09 87.7832C1434.95 87.6446 1435.44 86.6283 1436.26 86.3071C1436.67 86.1429 1437.14 86.1785 1437.56 86.0449C1438.8 85.6592 1439.24 84.1306 1439.46 82.8494C1439.64 81.8742 1439.81 80.8991 1439.99 79.924C1440.12 79.2101 1440.24 78.479 1440.13 77.7731C1440.01 77.0671 1439.59 76.3794 1438.92 76.1502C1439.14 73.795 1437.72 71.4433 1435.58 70.5945C1435.16 70.4307 1434.72 70.3144 1434.37 70.0493C1434.08 69.8367 1433.87 69.5413 1433.63 69.2823C1432.48 68.061 1430.78 67.9342 1429.22 68.4122C1428.2 68.7242 1428.3 68.6659 1427.31 68.5436C1426.4 68.4309 1425.61 68.4615 1424.79 69.0242C1423.75 69.7401 1423.06 70.86 1422.26 71.8388C1421.77 72.4279 1421.22 72.9915 1420.94 73.698C1420.55 74.6526 1420.71 75.7283 1420.42 76.7134C1420.2 77.457 1419.73 78.1384 1419.66 78.9054C1419.52 80.391 1420.89 81.5736 1420.99 83.0534C1421.05 83.9667 1420.64 85.0128 1421.17 85.7367C1421.38 86.0261 1421.71 86.1993 1422.01 86.391C1422.81 86.8966 1423.48 87.5804 1424.28 88.0789C1425.08 88.5775 1426.09 88.8801 1426.99 88.5286C1427.41 88.3664 1427.8 88.0688 1428.24 88.0781C1428.53 88.0842 1428.79 88.2216 1429.04 88.3568C1429.15 88.5897 1429.26 88.8368 1429.35 89.1396C1429.65 90.2473 1429.44 91.477 1429.34 92.6324C1429.23 93.8548 1428.93 95.1748 1428.06 95.8467L1416.8 95.9112V55.8558H1393.87V32.731H1352.59V55.2364H1329.67V95.9112H1318.89C1317.98 93.7185 1317.02 91.4613 1317.46 88.7522C1317.47 88.6427 1317.49 88.5321 1317.5 88.4215C1318.2 88.1533 1318.91 87.7298 1319.64 87.7354C1319.98 87.738 1320.32 87.8384 1320.67 87.7832C1321.53 87.6446 1322.01 86.6283 1322.83 86.3071C1323.25 86.1429 1323.71 86.1785 1324.14 86.0449C1325.37 85.6592 1325.81 84.1306 1326.04 82.8494C1326.21 81.8742 1326.39 80.8991 1326.56 79.924C1326.69 79.2101 1326.82 78.479 1326.7 77.7731C1326.58 77.0671 1326.16 76.3794 1325.5 76.1502C1325.71 73.795 1324.29 71.4433 1322.15 70.5945C1321.74 70.4307 1321.3 70.3144 1320.94 70.0493C1320.66 69.8367 1320.44 69.5413 1320.2 69.2823C1319.05 68.061 1317.36 67.9342 1315.8 68.4122C1314.77 68.7242 1314.88 68.6659 1313.89 68.5436C1312.97 68.4309 1312.18 68.4615 1311.36 69.0242C1310.32 69.7401 1309.64 70.86 1308.83 71.8388C1308.34 72.4279 1307.79 72.9915 1307.51 73.698C1307.13 74.6526 1307.28 75.7283 1306.99 76.7134C1306.77 77.457 1306.3 78.1384 1306.23 78.9054C1306.1 80.391 1307.47 81.5736 1307.56 83.0534C1307.62 83.9667 1307.21 85.0128 1307.74 85.7367C1307.95 86.0261 1308.28 86.1993 1308.58 86.391C1309.38 86.8966 1310.05 87.5804 1310.85 88.0789C1311.65 88.5775 1312.66 88.8801 1313.57 88.5286C1313.98 88.3664 1314.38 88.0688 1314.82 88.0781C1315.11 88.0842 1315.36 88.2216 1315.62 88.3568C1315.73 88.5897 1315.84 88.8368 1315.92 89.1396C1316.23 90.2473 1316.02 91.477 1315.92 92.6324C1315.81 93.8548 1315.5 95.1748 1314.63 95.8467L1292.16 95.9112V87.5833C1295.98 87.3046 1298.99 84.2035 1298.99 80.4102C1298.99 76.4336 1295.69 69.9723 1291.61 69.9723C1287.53 69.9723 1284.22 76.4336 1284.22 80.4102C1284.22 84.2035 1287.23 87.3046 1291.05 87.5833V95.9112H1280.6V92.327V40.7352V34.0012H1256.99L1252.21 28.7141L1250.44 26.6154L1247.15 30.5178L1238.13 40.4094H1238.81L1238.53 40.7352H1238.56V95.9112H1226.74V75.5983L1208.81 61.0459L1191 75.4974V95.9112H1181.5V0.933105H1140.34V95.9112H1115.02V90.0971C1117.68 89.9025 1119.78 87.7374 1119.78 85.0892C1119.78 82.3129 1117.48 77.8019 1114.63 77.8019C1111.78 77.8019 1109.47 82.3129 1109.47 85.0892C1109.47 87.7374 1111.57 89.9025 1114.24 90.0971V95.9112H1102.32V90.0971C1104.99 89.9025 1107.09 87.7374 1107.09 85.0892C1107.09 82.3129 1104.78 77.8019 1101.93 77.8019C1099.09 77.8019 1096.78 82.3129 1096.78 85.0892C1096.78 87.7374 1098.88 89.9025 1101.55 90.0971V95.9112H1091.07V75.5983L1073.14 61.0459L1055.33 75.4974V95.9112H1035.2V41.9448H1023.45V23.2836C1023.45 23.2836 998.771 4.66393 998.771 6.1354V95.9112H987.532V24.814H985.027V26.7387H961.52V24.814H959.015V95.9112H949.664V87.5833C953.481 87.3046 956.492 84.2035 956.492 80.4102C956.492 76.4336 953.185 69.9723 949.106 69.9723C945.027 69.9723 941.721 76.4336 941.721 80.4102C941.721 84.2035 944.731 87.3046 948.549 87.5833V95.9112H936.326V20.1314H933.063V22.1829H902.458V20.1314H899.196V95.9112H891.236V90.0971C893.901 89.9025 896.003 87.7374 896.003 85.0892C896.003 82.3129 893.694 77.8019 890.847 77.8019C887.999 77.8019 885.69 82.3129 885.69 85.0892C885.69 87.7374 887.792 89.9025 890.457 90.0971V95.9112H876.662C875.76 93.7185 874.792 91.4613 875.231 88.7522C875.249 88.6427 875.265 88.5321 875.281 88.4215C875.978 88.1533 876.683 87.7298 877.412 87.7354C877.757 87.738 878.099 87.8384 878.442 87.7832C879.302 87.6446 879.787 86.6283 880.605 86.3071C881.023 86.1429 881.486 86.1785 881.914 86.0449C883.149 85.6592 883.584 84.1306 883.813 82.8494C883.988 81.8742 884.163 80.8991 884.337 79.924C884.465 79.2101 884.593 78.479 884.474 77.7731C884.356 77.0671 883.939 76.3794 883.273 76.1502C883.484 73.795 882.068 71.4433 879.927 70.5945C879.514 70.4307 879.072 70.3144 878.717 70.0493C878.432 69.8367 878.221 69.5413 877.977 69.2823C876.825 68.061 875.133 67.9342 873.571 68.4122C872.551 68.7242 872.653 68.6659 871.662 68.5436C870.748 68.4309 869.958 68.4615 869.14 69.0242C868.099 69.7401 867.412 70.86 866.605 71.8388C866.119 72.4279 865.57 72.9915 865.286 73.698C864.901 74.6526 865.055 75.7283 864.765 76.7134C864.547 77.457 864.079 78.1384 864.008 78.9054C863.872 80.391 865.242 81.5736 865.338 83.0534C865.397 83.9667 864.985 85.0128 865.516 85.7367C865.728 86.0261 866.056 86.1993 866.358 86.391C867.154 86.8966 867.826 87.5804 868.627 88.0789C869.428 88.5775 870.439 88.8801 871.343 88.5286C871.76 88.3664 872.153 88.0688 872.594 88.0781C872.883 88.0842 873.136 88.2216 873.393 88.3568C873.503 88.5897 873.612 88.8368 873.696 89.1396C874.004 90.2473 873.793 91.477 873.691 92.6324C873.584 93.8548 873.28 95.1748 872.406 95.8467L855.92 95.9112V79.0858H856.395L836.351 64.6419L816.462 79.0858H816.957V95.9112H797.454V40.7567H764.654V95.9112H748.951V80.6144L743.525 75.5848V60.5485H743.497L730.027 51.1004L716.557 60.5485H716.53V95.9112H706.059V75.5983L688.128 61.0459L670.322 75.4974V95.9112H638.354" stroke="#E1006E" stroke-width="1.86605" stroke-linecap="round" stroke-linejoin="round"/>
<path d="M827.851 80.3616V83.9565H831.282V80.3616H827.851Z" fill="white" stroke="#E1006E" stroke-width="1.86605" stroke-linecap="round" stroke-linejoin="round"/>
<path d="M834.713 80.3611V83.9561H838.144V80.3611H834.713Z" fill="white" stroke="#E1006E" stroke-width="1.86605" stroke-linecap="round" stroke-linejoin="round"/>
<path d="M841.575 80.3611V83.9561H845.006V80.3611H841.575Z" fill="white" stroke="#E1006E" stroke-width="1.86605" stroke-linecap="round" stroke-linejoin="round"/>
<path d="M827.851 87.7005V91.2954H831.282V87.7005H827.851Z" fill="white" stroke="#E1006E" stroke-width="1.86605" stroke-linecap="round" stroke-linejoin="round"/>
<path d="M834.713 87.7005V91.2954H838.144V87.7005H834.713Z" fill="white" stroke="#E1006E" stroke-width="1.86605" stroke-linecap="round" stroke-linejoin="round"/>
<path d="M841.575 87.7005V91.2954H845.006V87.7005H841.575Z" fill="white" stroke="#E1006E" stroke-width="1.86605" stroke-linecap="round" stroke-linejoin="round"/>
</g>
<defs>
<clipPath id="clip0_156_147">
<rect width="1880" height="354.294" fill="white" transform="translate(-300)"/>
</clipPath>
</defs>
</svg>
