<svg width="177" height="199" viewBox="0 0 177 199" fill="none" xmlns="http://www.w3.org/2000/svg">
<path d="M29.8686 170.174H25.6328V166.854H23.7759V175.699H25.6328V171.81H29.8686V175.699H31.7254V166.854H29.8686V170.174Z" fill="#E64687"/>
<path d="M52.2374 167.969C51.8022 167.555 51.2945 167.239 50.7143 167.015C50.134 166.79 49.503 166.678 48.8067 166.678C48.1104 166.678 47.4939 166.79 46.9063 167.015C46.3261 167.239 45.8184 167.555 45.3832 167.969C44.948 168.384 44.6143 168.868 44.375 169.43C44.1356 169.991 44.0123 170.609 44.0123 171.283C44.0123 171.957 44.1284 172.568 44.3605 173.136C44.5926 173.705 44.9262 174.197 45.3614 174.618C45.7966 175.039 46.3043 175.362 46.8846 175.594C47.4648 175.825 48.1104 175.945 48.8067 175.945C49.503 175.945 50.1485 175.832 50.736 175.594C51.3163 175.362 51.824 175.039 52.2519 174.618C52.6799 174.197 53.0135 173.705 53.2529 173.136C53.4922 172.568 53.6083 171.95 53.6083 171.283C53.6083 170.616 53.4922 169.991 53.2529 169.43C53.0135 168.868 52.6799 168.384 52.2447 167.969H52.2374ZM51.28 172.778C51.0407 173.214 50.7143 173.565 50.2863 173.817C49.8657 174.07 49.3724 174.197 48.8067 174.197C48.2409 174.197 47.755 174.07 47.327 173.817C46.9063 173.565 46.5727 173.221 46.3261 172.778C46.0867 172.343 45.9634 171.838 45.9634 171.276C45.9634 170.714 46.0867 170.209 46.3261 169.774C46.5654 169.338 46.8991 168.987 47.327 168.735C47.7477 168.482 48.2409 168.356 48.8067 168.356C49.3724 168.356 49.8729 168.482 50.3008 168.735C50.7215 168.987 51.0552 169.331 51.2873 169.774C51.5194 170.209 51.6354 170.714 51.6354 171.276C51.6354 171.838 51.5194 172.343 51.28 172.778Z" fill="#E64687"/>
<path d="M73.2354 166.854H71.0304L67.8028 170.441V166.854H65.8952V175.699H67.8028V171.698L71.1755 175.699H73.4312L69.4783 170.996L73.2354 166.854Z" fill="#E64687"/>
<path d="M90.8171 172.68C90.8171 173.186 90.6793 173.593 90.411 173.902C90.1353 174.211 89.7364 174.365 89.1997 174.365C88.6629 174.365 88.2568 174.211 87.9884 173.902C87.7128 173.593 87.5822 173.186 87.5822 172.68V166.854H85.7254V172.793C85.7254 173.312 85.8124 173.776 85.9865 174.169C86.1606 174.562 86.3999 174.899 86.7118 175.166C87.0237 175.432 87.3936 175.636 87.8143 175.776C88.235 175.917 88.6992 175.987 89.1997 175.987C89.7001 175.987 90.1498 175.917 90.5705 175.776C90.9912 175.636 91.3611 175.432 91.6803 175.166C91.9922 174.899 92.2388 174.562 92.4128 174.169C92.5869 173.776 92.674 173.312 92.674 172.793V166.854H90.8171V172.68Z" fill="#E64687"/>
<path d="M111.054 167.198C110.546 166.973 109.937 166.854 109.218 166.854H106.288V175.699H108.145V172.491H109.218C109.937 172.491 110.546 172.379 111.054 172.147C111.561 171.922 111.946 171.592 112.214 171.171C112.482 170.743 112.613 170.244 112.613 169.676C112.613 169.107 112.482 168.595 112.214 168.173C111.946 167.752 111.561 167.429 111.054 167.205V167.198ZM110.386 170.63C110.103 170.848 109.712 170.96 109.218 170.96H108.145V168.384H109.218C109.712 168.384 110.103 168.489 110.386 168.707C110.669 168.925 110.814 169.24 110.814 169.676C110.814 170.111 110.669 170.42 110.386 170.638V170.63Z" fill="#E64687"/>
<path d="M124.9 175.699H126.989L127.939 173.691H131.051L132.008 175.699H134.111L129.513 166.341L124.914 175.699H124.9ZM130.63 172.259H128.367L129.506 169.718L130.63 172.259Z" fill="#E64687"/>
<path d="M151.077 166.854L149.118 170.42L147.174 166.854H145.064L148.19 172.049V175.699H150.068V172.035L153.195 166.854H151.077Z" fill="#E64687"/>
<path d="M52.2664 149.738C50.4241 148.923 48.8212 148.312 47.4938 147.905C47.4503 147.252 47.3778 146.255 47.2545 144.929C47.1312 143.791 47.0659 142.837 47.0442 142.085L52.4768 141.411C52.7742 141.341 52.912 141.166 52.97 141.039C53.028 140.906 53.0715 140.695 52.941 140.443L51.853 138.154C51.6934 137.845 51.4396 137.761 51.309 137.74C51.0987 137.712 50.8666 137.782 50.7578 137.894L48.5673 139.432C48.0088 139.495 47.5229 139.558 47.1167 139.614L47.2545 137.663C47.3198 136.778 47.3343 135.732 47.3053 134.223C48.1176 134.117 49.075 134.012 50.1848 133.886L52.1359 133.661C52.4333 133.591 52.5711 133.422 52.6291 133.289C52.6944 133.155 52.7379 132.945 52.6073 132.692L51.5194 130.305C51.3888 130.116 51.193 129.996 50.9754 129.975C50.765 129.947 50.5547 130.031 50.4604 130.137L48.2627 131.646C44.5781 132.102 40.5308 132.418 36.2587 132.601C35.9105 132.601 35.7509 132.776 35.6784 132.882L35.5551 133.162L36.1136 134.756C36.2877 135.1 36.6503 135.163 36.7809 135.149L41.7131 134.826C41.7421 135.486 41.7421 136.364 41.7131 137.578C41.684 139.046 41.6623 139.797 41.6405 140.176C40.0883 140.316 38.3766 140.422 36.4255 140.492H36.2151C36.1209 140.794 36.0266 141.095 35.9323 141.39L36.3457 142.738L36.4472 142.83C36.5125 142.886 36.6721 143.04 36.9985 143.04C37.7528 142.991 38.7828 142.907 40.0811 142.808L41.568 142.689C41.568 144.269 41.597 145.666 41.6478 146.845C40.9225 146.782 40.2769 146.768 39.7112 146.796C38.1953 146.915 36.9912 147.414 36.1281 148.291C35.1997 149.232 34.75 150.398 34.75 151.865C34.8008 156.245 37.3829 157.263 39.5516 157.348C39.6532 157.348 39.7547 157.348 39.8562 157.348C41.5317 157.348 42.9896 157.046 44.3097 156.428C45.7386 155.74 46.6307 154.729 46.9644 153.423C47.7405 153.936 48.6689 154.596 49.7061 155.375C50.0905 155.656 50.5402 155.803 50.9971 155.803C51.7587 155.803 52.3462 155.417 52.7669 154.596L53.4415 152.784C53.5865 152.356 53.6518 152.04 53.6518 151.759C53.6518 150.854 53.1731 150.159 52.2664 149.738ZM41.6405 150.882C41.6043 151.486 41.4084 151.963 41.0458 152.342C40.6178 152.791 40.0013 153.023 39.2252 152.967C38.0502 152.932 37.8471 152.398 37.8108 151.816C37.7746 151.415 37.8471 151.114 38.0212 150.924C38.2388 150.685 38.645 150.559 39.2325 150.545C39.305 150.545 39.3775 150.545 39.4573 150.545C40.1319 150.545 40.8717 150.657 41.6478 150.882H41.6405Z" fill="#E1006E"/>
<path d="M33.517 145.617C33.7636 145.217 33.6838 144.774 33.2631 144.472C32.9875 144.311 32.7554 144.325 32.6031 144.36C32.458 144.395 32.2477 144.493 32.0881 144.739C31.5876 145.434 30.7825 146.48 29.3754 148.256C29.2448 146.48 29.3246 144.276 29.6147 141.692C29.9847 138.168 30.2095 135.753 30.2748 134.658C30.5287 134.454 30.6592 134.152 30.6592 133.766C30.5867 133.141 30.1297 132.776 29.5422 132.84L25.2628 133.022L25.0452 133.078C24.6971 133.254 24.6391 133.507 24.6391 133.675C24.7479 135.872 24.6173 138.94 24.2329 143.04C23.9355 146.249 23.7832 148.593 23.7832 150.004C23.7832 154.919 25.067 157.404 27.5984 157.404C27.99 157.404 28.3745 157.327 28.8532 157.158C30.0354 156.758 30.6665 155.895 30.6665 154.652C30.6665 154.182 30.5432 153.662 30.2893 153.044C30.0427 152.483 29.9702 151.977 30.1007 151.696C30.5214 150.819 31.7399 148.657 33.5315 145.624L33.517 145.617Z" fill="#E1006E"/>
<path d="M78.5737 132.566C78.4867 132.32 78.2909 132.124 77.9935 131.997L73.6924 130.038L73.5473 129.912L72.909 130.081L72.8002 130.354C72.5826 130.888 71.9153 132.201 69.9497 134.995C67.295 138.835 66.033 140.688 65.8662 140.948C65.4165 141.615 65.1916 142.324 65.1916 143.04C65.1916 143.756 65.5253 144.746 66.2143 145.961C68.6949 150.243 70.3196 153.894 71.0522 156.821C71.3568 158.134 72.2345 158.857 73.5183 158.857C74.0115 158.857 74.4539 158.752 74.8239 158.555L75.5564 158.204C76.376 157.818 77.3625 156.969 77.3625 155.108C77.3625 154.736 77.2972 154.336 77.1521 153.873C76.202 151.191 73.5618 147.863 69.0648 143.693C68.6804 143.349 68.5789 143.124 68.5716 143.075C68.5716 143.033 68.5934 142.872 68.898 142.584L77.6744 133.949C78.0225 133.907 78.3054 133.71 78.465 133.401C78.6318 133.106 78.6753 132.833 78.5883 132.58L78.5737 132.566Z" fill="#E1006E"/>
<path d="M120.258 131.379C119.3 130.46 118.118 129.989 116.74 129.989C115.362 129.989 114.245 130.446 113.273 131.379C112.308 132.313 111.837 133.415 111.837 134.735C111.837 136.055 112.308 137.15 113.273 138.091C114.238 139.024 115.376 139.481 116.74 139.481C118.104 139.481 119.308 139.01 120.258 138.091C121.222 137.157 121.694 136.055 121.694 134.735C121.694 133.415 121.222 132.32 120.258 131.379ZM118.546 134.735C118.546 135.065 118.459 135.528 118.017 135.914C117.661 136.251 117.233 136.427 116.733 136.427C116.392 136.427 115.913 136.343 115.471 135.872C115.072 135.535 114.985 135.065 114.985 134.735C114.985 134.251 115.166 133.836 115.521 133.492C115.819 133.205 116.247 133.043 116.733 133.043C117.219 133.043 117.683 133.212 118.017 133.492C118.372 133.829 118.553 134.251 118.553 134.735H118.546Z" fill="#E1006E"/>
<path d="M121.752 148.046C117.683 144.935 114.571 142.633 112.243 141.018L106.39 137.094C104.772 136.027 102.734 136.041 101.167 137.396C98.1791 140.141 94.625 143.552 90.5923 147.554C90.3602 147.793 90.3602 148.172 90.6285 148.439L94.2406 151.479C94.538 151.759 95.024 151.907 95.5099 151.443C95.7638 151.191 95.8146 150.945 95.8001 150.776C95.8001 150.713 95.7856 150.657 95.7638 150.594C99.064 145.996 101.595 142.535 103.285 140.302C103.575 139.902 104.141 139.853 104.62 140.302C106.353 141.903 108.348 143.882 110.546 146.185L117.4 153.564C117.567 153.767 117.879 154.006 118.437 154.006C118.945 154.006 119.322 153.823 119.576 153.465L121.962 150.124C122.223 149.773 122.354 149.429 122.354 149.113C122.354 148.691 122.129 148.291 121.745 148.031L121.752 148.046Z" fill="#E1006E"/>
<path d="M153.136 132.229C153.071 132.081 152.933 131.885 152.607 131.78L148.103 130.06C147.834 129.926 147.45 129.961 147.261 130.326C144.882 134.152 142.445 137.361 140.015 139.846C137.107 142.809 133.285 145.877 128.657 148.965C128.186 149.288 128.069 149.794 128.36 150.278C128.635 150.742 129.128 150.889 129.658 150.671C134.452 148.643 138.463 146.536 141.589 144.388C141.633 146.74 141.611 150.721 141.524 155.824C141.524 156.211 141.691 156.59 141.974 156.863C142.249 157.13 142.605 157.271 142.931 157.271C142.982 157.271 143.026 157.271 143.069 157.264L146.348 157.116C146.87 157.088 147.261 156.92 147.515 156.639C147.863 156.246 147.842 155.726 147.842 155.558C147.813 154.491 147.842 147.99 147.863 139.046C148.531 138.316 149.205 137.543 149.88 136.736C150.823 135.599 151.686 134.489 152.476 133.408C152.752 133.352 152.97 133.177 153.078 132.924C153.238 132.622 153.195 132.383 153.129 132.236L153.136 132.229Z" fill="#E1006E"/>
<path d="M91.6295 55.8891C91.5642 55.7627 91.4917 55.6433 91.4191 55.524C91.4191 55.517 91.4119 55.51 91.4046 55.5029C91.4844 55.6293 91.557 55.7557 91.6295 55.8891Z" fill="#FD8CB2"/>
<path d="M114.883 104.562C102.727 107.328 89.1562 104.618 80.4813 95.2666C76.6081 91.5458 73.8737 86.6596 72.394 81.5699C70.6968 77.14 64.7129 84.5676 63.2333 86.3507C59.4834 91.1246 61.1516 80.257 56.3282 83.6479C48.7704 88.6885 51.338 96.8532 56.5676 102.287C67.5562 113.709 85.6819 114.109 90.44 113.997C99.1003 113.8 104.896 111.54 107.202 110.536C111.67 108.591 117.11 105.222 116.769 104.505C116.617 104.183 115.311 104.463 114.89 104.555L114.883 104.562Z" fill="#F096B9"/>
<path d="M81.8885 54.4783C65.8009 50.3854 51.6354 61.948 48.7124 77.0629C48.3352 78.4881 48.6544 79.7798 50.3879 79.8079C53.9782 79.9553 57.6411 79.5552 61.1081 78.7057L61.2822 78.6636C69.8699 76.4943 75.7958 72.261 80.9963 66.4691C83.8178 63.4363 80.6046 63.1134 77.9572 61.8357C77.3552 61.5408 77.1956 61.1898 77.2029 60.9441C77.2247 59.7928 81.2284 58.831 83.3463 56.8301C83.5204 56.6687 83.8251 56.3528 83.8033 55.9666C83.7598 55.1733 82.3889 54.6047 81.8957 54.4783H81.8885Z" fill="#E1006E"/>
<path d="M105.374 24.9433C103.829 24.8029 107.971 28.0744 109.059 29.4013C110.633 31.0792 112.062 32.8623 113.324 34.7719L113.396 34.8842C121.433 46.6504 122.107 63.6608 109.791 72.8224C103.713 77.9613 98.2952 76.8802 91.2088 75.0549C85.8559 73.4262 89.1199 78.5862 88.779 80.8888C88.7355 81.1065 88.6629 81.303 88.4816 81.4084C88.38 81.4645 88.2495 81.4856 88.0899 81.4715C86.7263 81.3592 82.9692 78.172 81.1124 77.6454C78.6898 76.9504 80.0099 80.3132 80.4161 81.4715C82.0335 85.6978 84.4778 89.5871 87.8796 92.3602C101.385 103.045 125.255 98.0116 132.98 82.7984C142.525 61.0211 128.2 32.413 105.374 24.9504V24.9433Z" fill="#EB6EA0"/>
<path d="M46.5509 63.5625L46.6162 63.4432C53.1296 50.8205 68.0131 41.7502 82.3672 47.4999C90.0048 50.0272 91.7455 55.11 93.6531 61.9619C94.8717 67.2623 97.86 61.9479 100.087 61.0843C100.304 61.0071 100.515 60.972 100.703 61.0843C100.805 61.1405 100.892 61.2388 100.957 61.3792C101.537 62.5797 100.565 67.3185 101.022 69.1367C101.61 71.5167 103.96 68.7296 104.794 67.8029C107.768 64.3278 110.024 60.3402 110.8 56.0999C113.607 39.4335 97.1637 21.9457 79.698 23.0759C55.4433 25.9613 37.0057 52.2738 41.7348 75.1392C42.3876 76.5081 43.2362 71.3973 43.8818 69.8247C44.5926 67.6695 45.4775 65.5774 46.5509 63.5696V63.5625Z" fill="#E64687"/>
</svg>
