<svg width="226" height="80" viewBox="0 0 226 80" fill="none" xmlns="http://www.w3.org/2000/svg">
<g clip-path="url(#clip0_156_572)">
<path d="M83.7315 58.692H79.3464V55.0881H77.4329V64.6852H79.3464V60.4657H83.7315V64.6852H85.645V55.0881H83.7315V58.692Z" fill="#E64687"/>
<path d="M105.984 56.2948C105.529 55.8494 105.011 55.5011 104.405 55.2582C103.807 55.0152 103.153 54.8937 102.436 54.8937C101.718 54.8937 101.073 55.0152 100.475 55.2582C99.8686 55.5011 99.3424 55.8494 98.8959 56.2948C98.4494 56.7402 98.0986 57.2667 97.8515 57.8741C97.6043 58.4815 97.4767 59.1537 97.4767 59.8826C97.4767 60.6115 97.5963 61.2756 97.8355 61.8911C98.0747 62.5066 98.4175 63.0411 98.864 63.5027C99.3105 63.9563 99.8367 64.3126 100.443 64.5637C101.049 64.8147 101.71 64.9443 102.436 64.9443C103.161 64.9443 103.823 64.8147 104.429 64.5637C105.035 64.3126 105.553 63.9563 106 63.5027C106.446 63.0492 106.789 62.5066 107.028 61.8911C107.275 61.2756 107.395 60.6034 107.395 59.8826C107.395 59.1618 107.275 58.4815 107.028 57.8741C106.781 57.2667 106.43 56.7402 105.984 56.2948ZM104.987 61.5185C104.74 61.9964 104.397 62.3689 103.959 62.6443C103.52 62.9196 103.01 63.0573 102.428 63.0573C101.846 63.0573 101.336 62.9196 100.897 62.6443C100.459 62.3689 100.116 61.9964 99.8686 61.5185C99.6215 61.0407 99.4939 60.4981 99.4939 59.8907C99.4939 59.2833 99.6215 58.7325 99.8686 58.2628C100.116 57.785 100.467 57.4124 100.897 57.1371C101.336 56.8617 101.846 56.724 102.428 56.724C103.01 56.724 103.528 56.8617 103.967 57.1371C104.405 57.4124 104.74 57.785 104.987 58.2628C105.226 58.7406 105.346 59.2833 105.346 59.8907C105.346 60.4981 105.226 61.0488 104.979 61.5185H104.987Z" fill="#E64687"/>
<path d="M126.809 55.0881H124.537L121.196 58.9836V55.0881H119.227V64.6852H121.196V60.3442L124.68 64.6852H127.016L122.926 59.5829L126.809 55.0881Z" fill="#E64687"/>
<path d="M144.11 61.4051C144.11 61.9559 143.967 62.3932 143.688 62.7252C143.409 63.0573 142.986 63.2274 142.436 63.2274C141.886 63.2274 141.463 63.0573 141.184 62.7252C140.905 62.3932 140.762 61.9478 140.762 61.4051V55.0881H138.848V61.5347C138.848 62.1016 138.936 62.5957 139.119 63.0249C139.295 63.4541 139.55 63.8186 139.869 64.1101C140.188 64.4017 140.57 64.6204 141.009 64.7743C141.447 64.9281 141.926 65.001 142.444 65.001C142.962 65.001 143.425 64.9281 143.863 64.7743C144.302 64.6204 144.684 64.4017 145.011 64.1101C145.338 63.8186 145.593 63.4541 145.769 63.0249C145.944 62.5957 146.04 62.1016 146.04 61.5347V55.0881H144.126V61.4051H144.11Z" fill="#E64687"/>
<path d="M164.752 55.4606C164.226 55.2177 163.596 55.0881 162.855 55.0881H159.825V64.6852H161.738V61.2027H162.855C163.596 61.2027 164.226 61.0812 164.752 60.8301C165.278 60.5872 165.677 60.2308 165.956 59.7692C166.235 59.3076 166.371 58.7649 166.371 58.1413C166.371 57.5177 166.235 56.967 165.956 56.5135C165.677 56.0599 165.278 55.7036 164.752 55.4606ZM164.059 59.1861C163.764 59.4209 163.365 59.5424 162.855 59.5424H161.738V56.7483H162.855C163.365 56.7483 163.764 56.8617 164.059 57.0966C164.353 57.3314 164.505 57.6797 164.505 58.1413C164.505 58.603 164.353 58.9431 164.059 59.1861Z" fill="#E64687"/>
<path d="M178.194 64.6852H180.355L181.336 62.5066H184.557L185.545 64.6852H187.714L182.954 54.5293L178.194 64.6852ZM184.118 60.9597H181.782L182.954 58.2061L184.118 60.9597Z" fill="#E64687"/>
<path d="M203.795 55.0881L201.77 58.9593L199.761 55.0881H197.577L200.806 60.7248V64.6852H202.751V60.7086L205.98 55.0881H203.795Z" fill="#E64687"/>
<path d="M106.893 36.5175H106.885C104.979 35.6347 103.321 34.9706 101.958 34.5333C101.91 33.8206 101.838 32.7435 101.71 31.3019C101.583 30.0709 101.511 29.0342 101.487 28.2162L107.1 27.4873C107.411 27.4064 107.547 27.2201 107.61 27.0824C107.674 26.9366 107.722 26.7099 107.578 26.4345L106.454 23.9482C106.287 23.608 106.032 23.527 105.888 23.5027C105.665 23.4703 105.434 23.5513 105.322 23.6728L103.058 25.3412C102.476 25.4141 101.973 25.4788 101.559 25.5436L101.702 23.4217C101.766 22.458 101.782 21.3242 101.75 19.6882C102.587 19.5748 103.584 19.4614 104.724 19.3237L106.741 19.0808C107.052 18.9998 107.188 18.8216 107.252 18.6758C107.315 18.5382 107.363 18.3033 107.228 18.0279L106.103 15.4444C105.968 15.2339 105.769 15.1043 105.545 15.0881C105.33 15.0557 105.107 15.1529 105.011 15.2581L102.739 16.8941C98.9278 17.3881 94.75 17.7364 90.3251 17.9308C89.9663 17.9308 89.7989 18.1251 89.7271 18.2385L89.5995 18.5382L90.1736 20.2713C90.357 20.6439 90.7237 20.7167 90.8593 20.7005L95.9619 20.3442C95.9938 21.0569 95.9938 22.0126 95.9619 23.3327C95.93 24.92 95.9061 25.738 95.8902 26.151C94.2876 26.3049 92.5176 26.4183 90.5005 26.4912H90.2852C90.1895 26.8232 90.0859 27.1391 89.9902 27.463L90.4208 28.9208L90.5244 29.0261C90.5882 29.0909 90.7636 29.2529 91.0905 29.2529C91.8718 29.1962 92.9322 29.1152 94.2796 29.0018L95.8104 28.8722C95.8104 30.5892 95.8423 32.1037 95.8981 33.3752C95.1487 33.3104 94.479 33.2942 93.8969 33.3185C92.3263 33.4481 91.0825 33.9907 90.1895 34.9382C89.2328 35.9587 88.7704 37.2221 88.7704 38.8095C88.8262 43.5635 91.4971 44.673 93.7375 44.7621C93.8411 44.7621 93.9448 44.7621 94.0564 44.7621C95.7865 44.7621 97.2934 44.4381 98.6568 43.7578C100.132 43.0047 101.057 41.9113 101.399 40.494C102.197 41.0528 103.161 41.7655 104.23 42.6078C104.628 42.9075 105.091 43.0694 105.561 43.0694C106.351 43.0694 106.957 42.6483 107.387 41.7574L108.089 39.7894C108.24 39.3278 108.312 38.9796 108.312 38.6718C108.312 37.6918 107.818 36.9306 106.877 36.4851L106.893 36.5175ZM95.8981 37.7566C95.8583 38.4126 95.659 38.931 95.2842 39.344C94.8457 39.8299 94.1999 40.081 93.3946 40.0243C92.1828 39.9838 91.9755 39.4088 91.9276 38.7771C91.8878 38.3478 91.9595 38.0158 92.1429 37.8133C92.3661 37.5542 92.7807 37.4165 93.3946 37.4003C93.4744 37.4003 93.5461 37.4003 93.6259 37.4003C94.3275 37.4003 95.0849 37.5218 95.8902 37.7647L95.8981 37.7566Z" fill="#E1006E"/>
<path d="M87.5027 32.0389C87.7578 31.6015 87.6781 31.1237 87.2395 30.7917C86.9525 30.6216 86.7133 30.6297 86.5618 30.6702C86.4104 30.7107 86.1951 30.8079 86.0277 31.0832C85.5094 31.8364 84.6723 32.9702 83.2212 34.8978C83.0936 32.9702 83.1734 30.573 83.4684 27.7708C83.8511 23.9482 84.0823 21.3242 84.1461 20.1336C84.4092 19.915 84.5447 19.591 84.5447 19.1618C84.4729 18.4896 83.9946 18.0846 83.3886 18.1494L78.9637 18.3438L78.7404 18.4086C78.3816 18.5949 78.3258 18.8783 78.3258 19.0565C78.4375 21.4456 78.3019 24.7662 77.9033 29.2205C77.5923 32.703 77.4408 35.246 77.4408 36.7767C77.4408 42.1057 78.7643 44.8107 81.3795 44.8107C81.7781 44.8107 82.1847 44.7297 82.679 44.5434C83.9069 44.1142 84.5527 43.1666 84.5527 41.8222C84.5527 41.312 84.4251 40.7451 84.162 40.0729C83.9069 39.4574 83.8271 38.9148 83.9627 38.6151C84.3932 37.6594 85.6529 35.3189 87.5106 32.0227L87.5027 32.0389Z" fill="#E1006E"/>
<path d="M134.08 17.8903C133.993 17.623 133.793 17.4124 133.482 17.2667L129.034 15.1367L128.882 14.999L128.22 15.1853L128.101 15.4768C127.877 16.0599 127.184 17.4853 125.151 20.5062C122.408 24.669 121.1 26.6856 120.925 26.9609C120.463 27.6898 120.231 28.4511 120.231 29.2367C120.231 30.0223 120.574 31.0832 121.292 32.4033C123.859 37.0439 125.541 41.0124 126.291 44.1871C126.61 45.6125 127.511 46.3981 128.842 46.3981C129.352 46.3981 129.807 46.2847 130.19 46.066L130.947 45.6854C131.8 45.2723 132.813 44.3491 132.813 42.3244C132.813 41.9194 132.741 41.4902 132.589 40.9881C131.609 38.0725 128.874 34.4685 124.234 29.9413C123.835 29.5687 123.732 29.3258 123.724 29.2691C123.724 29.2205 123.747 29.0504 124.058 28.7346L133.14 19.3642C133.498 19.3238 133.793 19.1051 133.961 18.7649C134.136 18.4491 134.176 18.1494 134.088 17.8741L134.08 17.8903Z" fill="#E1006E"/>
<path d="M177.182 16.5945C176.193 15.5902 174.973 15.0881 173.538 15.0881C172.103 15.0881 170.955 15.5821 169.958 16.5945C168.954 17.6149 168.475 18.8054 168.475 20.2308C168.475 21.6562 168.962 22.8548 169.958 23.8672C170.955 24.8876 172.135 25.3736 173.538 25.3736C174.941 25.3736 176.193 24.8633 177.182 23.8672C178.186 22.8467 178.665 21.6562 178.665 20.2308C178.665 18.8054 178.178 17.6068 177.182 16.5945ZM175.412 20.2389C175.412 20.5953 175.324 21.0974 174.862 21.5185C174.495 21.8911 174.049 22.0773 173.53 22.0773C173.179 22.0773 172.685 21.9883 172.223 21.478C171.808 21.1055 171.72 20.6034 171.72 20.247C171.72 19.7287 171.904 19.2671 172.271 18.9026C172.582 18.5868 173.02 18.4167 173.522 18.4167C174.025 18.4167 174.503 18.603 174.846 18.9026C175.213 19.2752 175.396 19.7287 175.396 20.247L175.412 20.2389Z" fill="#E1006E"/>
<path d="M178.729 34.6791C174.527 31.3019 171.306 28.8075 168.898 27.0581L162.847 22.8062C161.172 21.6481 159.067 21.6643 157.449 23.1302C154.363 26.1024 150.688 29.8117 146.518 34.1527C146.279 34.4118 146.279 34.8249 146.55 35.1164L150.289 38.4126C150.592 38.7204 151.103 38.8743 151.597 38.3721C151.86 38.1049 151.908 37.8295 151.9 37.6513C151.9 37.5866 151.884 37.5218 151.868 37.457C155.28 32.4681 157.895 28.7103 159.649 26.2887C159.952 25.8514 160.534 25.7947 161.029 26.2887C162.823 28.03 164.888 30.1761 167.16 32.6706L174.248 40.6803C174.423 40.899 174.75 41.1581 175.324 41.1581C175.85 41.1581 176.241 40.9557 176.496 40.5669L178.96 36.9468C179.223 36.5661 179.366 36.1936 179.366 35.8534C179.366 35.3999 179.127 34.9625 178.737 34.6791H178.729Z" fill="#E1006E"/>
<path d="M211.178 17.5177C211.115 17.3557 210.963 17.1452 210.636 17.0318L205.98 15.1691C205.701 15.0233 205.302 15.0638 205.111 15.4525C202.647 19.6072 200.128 23.0816 197.616 25.7866C194.603 29.0018 190.656 32.3304 185.872 35.6833C185.386 36.0316 185.266 36.5823 185.561 37.1087C185.84 37.6109 186.359 37.7647 186.901 37.538C191.852 35.3351 195.998 33.0512 199.243 30.7188C199.291 33.2699 199.267 37.5947 199.179 43.1261C199.179 43.5392 199.347 43.9522 199.642 44.2519C199.921 44.5353 200.295 44.6973 200.63 44.6973C200.678 44.6973 200.726 44.6973 200.774 44.6892L204.162 44.5353C204.696 44.5029 205.111 44.3248 205.374 44.017C205.733 43.5959 205.717 43.029 205.709 42.8427C205.677 41.6846 205.709 34.6305 205.733 24.92C206.419 24.1263 207.12 23.2922 207.822 22.4094C208.802 21.1784 209.695 19.9717 210.509 18.8054C210.788 18.7406 211.019 18.5544 211.131 18.279C211.29 17.9551 211.25 17.6878 211.178 17.5339V17.5177Z" fill="#E1006E"/>
<path d="M41.2359 33.0593C41.204 32.9945 41.1641 32.9297 41.1242 32.8569C41.1242 32.8569 41.1242 32.8488 41.1163 32.8407C41.1561 32.9135 41.196 32.9783 41.2359 33.0512V33.0593Z" fill="#FD8CB2"/>
<path d="M53.3946 59.7611C47.0401 61.2756 39.9443 59.7935 35.4156 54.6588C33.3905 52.6179 31.9634 49.9372 31.19 47.1432C30.305 44.7135 27.1717 48.7872 26.3983 49.7672C24.437 52.3831 25.306 46.4224 22.7866 48.2851C18.84 51.0468 20.1794 55.5254 22.9141 58.5058C28.6626 64.7662 38.1344 64.9929 40.622 64.9281C45.1506 64.8228 48.1723 63.5837 49.3842 63.033C51.7202 61.964 54.5586 60.1174 54.3832 59.7287C54.3035 59.5505 53.6178 59.7044 53.4025 59.753L53.3946 59.7611Z" fill="#F096B9"/>
<path d="M36.1412 32.2899C27.7298 30.0466 20.3309 36.3879 18.8001 44.6811C18.6008 45.4667 18.7682 46.1713 19.6771 46.1875C21.5508 46.2685 23.4722 46.0498 25.2821 45.5801L25.3698 45.5558C29.8585 44.3653 32.952 42.049 35.6708 38.8662C37.1458 37.2059 35.4635 37.0277 34.0842 36.3231C33.7653 36.1612 33.6855 35.9668 33.6855 35.8291C33.6935 35.1974 35.7904 34.671 36.8986 33.5695C36.9863 33.4805 37.1537 33.3104 37.1378 33.0998C37.1139 32.6625 36.3963 32.3547 36.1412 32.2818V32.2899Z" fill="#E1006E"/>
<path d="M48.4195 16.0842C47.6142 16.0113 49.7748 17.8012 50.3409 18.5301C51.1621 19.4533 51.9116 20.4252 52.5654 21.478L52.6052 21.5347C56.807 27.9895 57.1578 37.3193 50.7236 42.3487C47.5424 45.167 44.712 44.5758 41.0126 43.5716C38.2141 42.6807 39.9203 45.5072 39.7449 46.7706C39.721 46.8921 39.6811 46.9974 39.5855 47.0541C39.5297 47.0865 39.4659 47.0946 39.3782 47.0865C38.6686 47.0217 36.6993 45.2804 35.7346 44.9889C34.4669 44.6082 35.1605 46.4548 35.3758 47.0865C36.2209 49.4027 37.4966 51.5408 39.2745 53.0553C46.3305 58.9188 58.8161 56.1571 62.8504 47.8073C67.8415 35.8615 60.3549 20.166 48.4195 16.0761V16.0842Z" fill="#EB6EA0"/>
<path d="M17.6759 37.2706L17.7078 37.2059C21.1122 30.2814 28.8938 25.3087 36.3963 28.4591C40.3907 29.844 41.2997 32.63 42.2963 36.3879C42.9341 39.2953 44.4968 36.3879 45.6608 35.9019C45.7725 35.8615 45.8841 35.8453 45.9797 35.9019C46.0356 35.9343 46.0754 35.991 46.1153 36.0639C46.4183 36.7199 45.908 39.3196 46.1472 40.3239C46.4581 41.6278 47.678 40.0971 48.1165 39.595C49.6712 37.6918 50.8512 35.5051 51.2578 33.1726C52.7248 24.0291 44.13 14.432 35.0011 15.0556C22.3241 16.643 12.6849 31.0751 15.1565 43.6201C15.4993 44.3733 15.9458 41.563 16.2807 40.7045C16.6554 39.5221 17.1178 38.3721 17.6759 37.2706Z" fill="#E64687"/>
</g>
<defs>
<clipPath id="clip0_156_572">
<rect width="226" height="80" fill="white"/>
</clipPath>
</defs>
</svg>
