<svg width="1440" height="1011" viewBox="0 0 1440 1011" fill="none" xmlns="http://www.w3.org/2000/svg">
  <path d="M776.055 51.2075C962.024 74.1412 1106 232.684 1106 424.856C1106 632.791 937.435 801.356 729.5 801.356C521.565 801.356 353 632.791 353 424.856C353 232.684 496.976 74.1417 682.944 51.2075L729.5 98.356L776.055 51.2075Z" fill="red"/>
  <path d="M100.589 92.4601C278.232 32.8503 476.55 113.689 559.524 287.025C649.304 474.579 570.042 699.403 382.488 789.183C194.933 878.963 -29.8903 799.701 -119.67 612.147C-202.644 438.811 -141.234 233.644 16.6046 132.662L78.9543 155.088L100.589 92.4601Z" fill="red"/>
  <path d="M1311.32 155.088L1283.82 75.503C1128.5 57.4385 972.041 138.086 900.745 287.025C810.966 474.579 890.227 699.403 1077.78 789.183C1265.34 878.963 1490.16 799.701 1579.94 612.147C1667.44 429.353 1594.37 211.16 1416.97 117.086L1311.32 155.088Z" fill="red"/>
</svg>
