<svg width="550" height="184" viewBox="0 0 550 184" fill="none" xmlns="http://www.w3.org/2000/svg">
<g filter="url(#filter0_d_62_12124)">
<circle cx="76.1924" cy="97.7251" r="42.2371" fill="white"/>
<circle cx="142.447" cy="97.7251" r="42.2371" fill="white"/>
<circle cx="208.701" cy="97.7251" r="42.2371" fill="white"/>
<circle cx="274.955" cy="97.7251" r="42.2371" fill="white"/>
<circle cx="341.21" cy="97.7251" r="42.2371" fill="white"/>
<circle cx="407.464" cy="97.7251" r="42.2371" fill="white"/>
<circle cx="473.718" cy="97.7251" r="42.2371" fill="white"/>
<path d="M274.955 153.213L232.639 117.187L317.272 117.187L274.955 153.213Z" fill="white"/>
<circle cx="76.1924" cy="62.1134" r="42.2371" fill="white"/>
<circle cx="142.447" cy="62.1134" r="42.2371" fill="white"/>
<circle cx="208.701" cy="62.1134" r="42.2371" fill="white"/>
<circle cx="274.955" cy="62.1134" r="42.2371" fill="white"/>
<circle cx="341.21" cy="62.1134" r="42.2371" fill="white"/>
<circle cx="407.464" cy="62.1134" r="42.2371" fill="white"/>
<circle cx="473.718" cy="62.1134" r="42.2371" fill="white"/>
<circle cx="504.361" cy="76.1924" r="28.9863" fill="white"/>
<circle cx="45.5498" cy="76.1924" r="28.9863" fill="white"/>
</g>
<defs>
<filter id="filter0_d_62_12124" x="-5.72205e-06" y="-9.53674e-07" width="549.911" height="183.027" filterUnits="userSpaceOnUse" color-interpolation-filters="sRGB">
<feFlood flood-opacity="0" result="BackgroundImageFix"/>
<feColorMatrix in="SourceAlpha" type="matrix" values="0 0 0 0 0 0 0 0 0 0 0 0 0 0 0 0 0 0 127 0" result="hardAlpha"/>
<feOffset dy="13.2509"/>
<feGaussianBlur stdDeviation="8.28179"/>
<feColorMatrix type="matrix" values="0 0 0 0 0.882353 0 0 0 0 0 0 0 0 0 0.431373 0 0 0 0.1 0"/>
<feBlend mode="normal" in2="BackgroundImageFix" result="effect1_dropShadow_62_12124"/>
<feBlend mode="normal" in="SourceGraphic" in2="effect1_dropShadow_62_12124" result="shape"/>
</filter>
</defs>
</svg>
